<svg width="12" height="16" viewBox="0 0 12 16" fill="none" xmlns="http://www.w3.org/2000/svg">
<path d="M6 1.64C5.08 1.64 3.82 1.72 2.22 1.88C2.02 1.92 1.84 2.02 1.68 2.18C1.52 2.34 1.44 2.52 1.44 2.72C1.24 4.96 1.14 6.72 1.14 8C1.14 9.28 1.24 11.04 1.44 13.28C1.44 13.48 1.52 13.66 1.68 13.82C1.84 13.98 2.02 14.08 2.22 14.12C3.82 14.28 5.08 14.36 6 14.36C6.92 14.36 8.18 14.28 9.78 14.12C9.98 14.08 10.16 13.98 10.32 13.82C10.48 13.66 10.56 13.48 10.56 13.28C10.76 11.04 10.86 9.28 10.86 8C10.86 6.72 10.76 4.96 10.56 2.72C10.56 2.52 10.48 2.34 10.32 2.18C10.16 2.02 9.98 1.92 9.78 1.88C8.18 1.72 6.92 1.64 6 1.64ZM2.16 0.740001C3.76 0.58 5.04 0.5 6 0.5C6.96 0.5 8.24 0.58 9.84 0.740001C10.36 0.780001 10.8 0.98 11.16 1.34C11.52 1.7 11.72 2.14 11.76 2.66C11.92 4.9 12 6.68 12 8C12 9.32 11.92 11.1 11.76 13.34C11.72 13.86 11.52 14.3 11.16 14.66C10.8 15.02 10.36 15.22 9.84 15.26C8.24 15.42 6.96 15.5 6 15.5C5.04 15.5 3.76 15.42 2.16 15.26C1.64 15.22 1.2 15.02 0.84 14.66C0.48 14.3 0.28 13.86 0.24 13.34C0.08 11.1 0 9.32 0 8C0 6.68 0.08 4.9 0.24 2.66C0.28 2.14 0.48 1.7 0.84 1.34C1.2 0.98 1.64 0.780001 2.16 0.740001ZM4.62 11.84C4.62 11.68 4.68 11.54 4.8 11.42C4.92 11.3 5.06 11.24 5.22 11.24H6.78C6.94 11.24 7.08 11.3 7.2 11.42C7.32 11.54 7.38 11.68 7.38 11.84C7.38 12 7.32 12.14 7.2 12.26C7.08 12.38 6.94 12.44 6.78 12.44H5.22C5.06 12.44 4.92 12.38 4.8 12.26C4.68 12.14 4.62 12 4.62 11.84ZM6.78 4.16C6.78 4.36 6.7 4.54 6.54 4.7C6.38 4.86 6.2 4.94 6 4.94C5.8 4.94 5.62 4.86 5.46 4.7C5.3 4.54 5.22 4.36 5.22 4.16C5.22 3.96 5.3 3.78 5.46 3.62C5.62 3.46 5.8 3.38 6 3.38C6.2 3.38 6.38 3.46 6.54 3.62C6.7 3.78 6.78 3.96 6.78 4.16Z" fill="#131836"/>
</svg>
