<svg width="17" height="17" viewBox="0 0 17 17" fill="none" xmlns="http://www.w3.org/2000/svg">
<path d="M1.80685 3.04997C1.70019 2.72997 1.71796 2.43664 1.86019 2.16997C2.00241 1.90331 2.21574 1.70775 2.50019 1.58331C2.78463 1.45886 3.06907 1.46775 3.35352 1.60997C5.66463 2.56997 7.46019 3.36997 8.74019 4.00997C10.198 4.72108 12.118 5.76997 14.5002 7.15664C14.7491 7.29886 14.918 7.50331 15.0069 7.76997C15.0957 8.03664 15.0957 8.30331 15.0069 8.56997C14.918 8.83664 14.7491 9.04108 14.5002 9.18331C12.118 10.57 10.198 11.6189 8.74019 12.33C7.46019 12.97 5.66463 13.77 3.35352 14.73C3.06907 14.8722 2.78463 14.8811 2.50019 14.7566C2.21574 14.6322 2.00241 14.4366 1.86019 14.17C1.71796 13.9033 1.70019 13.61 1.80685 13.29L3.51352 8.16997L1.80685 3.04997ZM4.42019 8.64997L2.76685 13.61C2.7313 13.6811 2.74019 13.7433 2.79352 13.7966C2.84685 13.85 2.90908 13.8589 2.98019 13.8233C5.25574 12.8633 7.03352 12.0633 8.31352 11.4233C9.73574 10.7122 11.638 9.68108 14.0202 8.32997C14.0557 8.29442 14.0735 8.24108 14.0735 8.16997C14.0735 8.09886 14.0557 8.04553 14.0202 8.00997C11.638 6.65886 9.73574 5.62775 8.31352 4.91664C7.03352 4.27664 5.25574 3.47664 2.98019 2.51664C2.90908 2.48108 2.84685 2.48997 2.79352 2.54331C2.74019 2.59664 2.7313 2.65886 2.76685 2.72997L4.42019 7.68997H7.19352C7.33574 7.68997 7.4513 7.73442 7.54019 7.82331C7.62908 7.91219 7.67352 8.02775 7.67352 8.16997C7.67352 8.31219 7.62908 8.42775 7.54019 8.51664C7.4513 8.60553 7.33574 8.64997 7.19352 8.64997H4.42019Z" fill="white"/>
</svg>
