<svg width="18" height="18" viewBox="0 0 18 18" fill="none" xmlns="http://www.w3.org/2000/svg">
<path d="M12.0001 17.04H6.00005C4.64005 17.04 3.58005 16.67 2.82005 15.93C2.06005 15.19 1.68005 14.12 1.68005 12.72V5.21999C1.68005 3.85999 2.06005 2.80999 2.82005 2.06999C3.58005 1.32999 4.64005 0.959993 6.00005 0.959993H12.0001C13.3601 0.959993 14.4201 1.32999 15.1801 2.06999C15.9401 2.80999 16.3201 3.85999 16.3201 5.21999V12.72C16.3201 14.12 15.9401 15.19 15.1801 15.93C14.4201 16.67 13.3601 17.04 12.0001 17.04ZM6.00005 2.03999C3.88005 2.03999 2.82005 3.09999 2.82005 5.21999V12.72C2.82005 14.88 3.88005 15.96 6.00005 15.96H12.0001C14.1201 15.96 15.1801 14.9 15.1801 12.78V5.21999C15.1801 3.09999 14.1201 2.03999 12.0001 2.03999H6.00005ZM13.8601 6.95999H12.3601C11.8001 6.95999 11.3201 6.74999 10.9201 6.32999C10.5201 5.90999 10.3201 5.41999 10.3201 4.85999V3.35999C10.3201 3.19999 10.3701 3.06999 10.4701 2.96999C10.5701 2.86999 10.7001 2.81999 10.8601 2.81999C11.0201 2.81999 11.1601 2.86999 11.2801 2.96999C11.4001 3.06999 11.4601 3.19999 11.4601 3.35999V4.85999C11.4601 5.13999 11.5501 5.36999 11.7301 5.54999C11.9101 5.72999 12.1201 5.81999 12.3601 5.81999H13.8601C14.0201 5.81999 14.1601 5.86999 14.2801 5.96999C14.4001 6.06999 14.4601 6.19999 14.4601 6.35999C14.4601 6.51999 14.4001 6.65999 14.2801 6.77999C14.1601 6.89999 14.0201 6.95999 13.8601 6.95999ZM9.00005 10.32H6.00005C5.84005 10.32 5.71005 10.26 5.61005 10.14C5.51005 10.02 5.46005 9.88999 5.46005 9.74999C5.46005 9.60999 5.51005 9.47999 5.61005 9.35999C5.71005 9.23999 5.84005 9.17999 6.00005 9.17999H9.00005C9.16005 9.17999 9.29005 9.23999 9.39005 9.35999C9.49005 9.47999 9.54005 9.60999 9.54005 9.74999C9.54005 9.88999 9.49005 10.02 9.39005 10.14C9.29005 10.26 9.16005 10.32 9.00005 10.32ZM12.0001 13.32H6.00005C5.84005 13.32 5.71005 13.26 5.61005 13.14C5.51005 13.02 5.46005 12.89 5.46005 12.75C5.46005 12.61 5.51005 12.48 5.61005 12.36C5.71005 12.24 5.84005 12.18 6.00005 12.18H12.0001C12.1601 12.18 12.2901 12.24 12.3901 12.36C12.4901 12.48 12.5401 12.61 12.5401 12.75C12.5401 12.89 12.4901 13.02 12.3901 13.14C12.2901 13.26 12.1601 13.32 12.0001 13.32Z" fill="#131836"/>
</svg>
