<svg width="18" height="18" viewBox="0 0 18 18" fill="none" xmlns="http://www.w3.org/2000/svg">
<g clip-path="url(#clip0_6_2837)">
<path d="M9.00001 0.179991C7.80001 0.179991 6.70001 0.479992 5.70001 1.07999C4.70001 1.67999 3.91001 2.47999 3.33001 3.47999C2.75001 4.47999 2.46001 5.57999 2.46001 6.77999C2.46001 7.61999 2.62001 8.43999 2.94001 9.23999C2.78001 9.39999 2.54001 9.75999 2.22001 10.32L0.840007 12.66C0.640007 13.06 0.520007 13.34 0.480007 13.5C0.320007 13.86 0.330007 14.17 0.510007 14.43C0.690007 14.69 0.980007 14.82 1.38001 14.82C1.54001 14.78 1.84001 14.72 2.28001 14.64L3.54001 14.4H3.66001L3.72001 14.52L4.14001 15.78C4.30001 16.18 4.42001 16.44 4.50001 16.56C4.66001 16.92 4.90001 17.12 5.22001 17.16C5.54001 17.2 5.82001 17.06 6.06001 16.74C6.18001 16.62 6.34001 16.36 6.54001 15.96L8.10001 13.26C8.42001 13.3 8.72001 13.32 9.00001 13.32L9.66001 13.26L11.22 15.96C11.46 16.36 11.62 16.62 11.7 16.74C11.94 17.06 12.22 17.2 12.54 17.16C12.86 17.12 13.12 16.92 13.32 16.56C13.4 16.44 13.5 16.18 13.62 15.78L14.04 14.52L14.16 14.46L14.28 14.4L15.54 14.64C15.94 14.72 16.22 14.78 16.38 14.82C16.82 14.82 17.13 14.69 17.31 14.43C17.49 14.17 17.5 13.86 17.34 13.5C17.3 13.34 17.16 13.06 16.92 12.66L15.54 10.26C15.3 9.85999 15.12 9.57999 15 9.41999C15.36 8.57999 15.54 7.67999 15.54 6.71999C15.54 5.55999 15.25 4.47999 14.67 3.47999C14.09 2.47999 13.3 1.67999 12.3 1.07999C11.3 0.479992 10.2 0.179991 9.00001 0.179991ZM3.54001 6.71999C3.54001 5.75999 3.79001 4.85999 4.29001 4.01999C4.79001 3.17999 5.45001 2.51999 6.27001 2.03999C7.09001 1.55999 8.00001 1.31999 9.00001 1.31999C10 1.31999 10.91 1.55999 11.73 2.03999C12.55 2.51999 13.21 3.17999 13.71 4.01999C14.21 4.85999 14.46 5.75999 14.46 6.71999C14.46 7.63999 14.26 8.47999 13.86 9.23999C13.46 9.99999 12.91 10.63 12.21 11.13C11.51 11.63 10.74 11.96 9.90001 12.12C9.62001 12.16 9.31001 12.18 8.97001 12.18C8.63001 12.18 8.28001 12.14 7.92001 12.06C7.12001 11.9 6.38001 11.56 5.70001 11.04C5.02001 10.52 4.49001 9.88999 4.11001 9.14999C3.73001 8.40999 3.54001 7.61999 3.54001 6.77999V6.71999ZM3.18001 10.92C3.34001 10.64 3.46001 10.46 3.54001 10.38C3.94001 10.98 4.43001 11.51 5.01001 11.97C5.59001 12.43 6.24001 12.78 6.96001 13.02L5.34001 15.78L5.04001 14.76C4.92001 14.44 4.82001 14.2 4.74001 14.04C4.62001 13.76 4.45001 13.56 4.23001 13.44C4.01001 13.32 3.74001 13.28 3.42001 13.32C3.30001 13.32 3.04001 13.36 2.64001 13.44L1.62001 13.62L1.86001 13.2L3.18001 10.92ZM10.86 13.02C11.58 12.82 12.24 12.5 12.84 12.06C13.44 11.62 13.96 11.1 14.4 10.5L16.14 13.62L15.12 13.44C14.76 13.36 14.5 13.32 14.34 13.32C14.06 13.28 13.81 13.32 13.59 13.44C13.37 13.56 13.2 13.76 13.08 14.04C13 14.2 12.9 14.44 12.78 14.76L12.42 15.78L12.18 15.36L10.86 13.02Z" fill="#131836"/>
</g>
<defs>
<clipPath id="clip0_6_2837">
<rect width="18" height="18" fill="white" transform="matrix(1 0 0 -1 0 18)"/>
</clipPath>
</defs>
</svg>
