<svg width="14" height="14" viewBox="0 0 14 14" fill="none" xmlns="http://www.w3.org/2000/svg">
<path d="M9.98003 2.2C9.71336 2.1 9.36336 2.05 8.93003 2.05C8.5967 2.01667 7.96336 2 7.03003 2C6.03003 2 5.36336 2.01667 5.03003 2.05C4.56336 2.08333 4.21336 2.15 3.98003 2.25C3.58003 2.41667 3.23836 2.64167 2.95503 2.925C2.6717 3.20833 2.4467 3.55 2.28003 3.95C2.18003 4.18333 2.11336 4.53333 2.08003 5C2.0467 5.33333 2.03003 6 2.03003 7C2.03003 8 2.0467 8.66667 2.08003 9C2.11336 9.46667 2.18003 9.81667 2.28003 10.05C2.4467 10.45 2.6717 10.7917 2.95503 11.075C3.23836 11.3583 3.58003 11.5833 3.98003 11.75C4.21336 11.85 4.56336 11.9167 5.03003 11.95C5.36336 11.9833 6.03003 12 7.03003 12C8.03003 12 8.6967 11.9833 9.03003 11.95C9.4967 11.9167 9.8467 11.85 10.08 11.75C10.48 11.5833 10.8217 11.3583 11.105 11.075C11.3884 10.7917 11.6134 10.45 11.78 10.05C11.88 9.81667 11.9467 9.46667 11.98 9C12.0134 8.66667 12.03 8 12.03 7V5.75C12.03 5.58333 12.0884 5.44167 12.205 5.325C12.3217 5.20833 12.4634 5.14167 12.63 5.125C12.7967 5.10833 12.9467 5.16667 13.08 5.3C13.2134 5.43333 13.28 5.58333 13.28 5.75V7C13.28 8.03333 13.2634 8.73333 13.23 9.1C13.1967 9.7 13.0967 10.1833 12.93 10.55C12.73 11.0833 12.4217 11.5583 12.005 11.975C11.5884 12.3917 11.1134 12.7 10.58 12.9C10.2134 13.0667 9.73003 13.1667 9.13003 13.2C8.76336 13.2333 8.06336 13.25 7.03003 13.25C5.9967 13.25 5.2967 13.2333 4.93003 13.2C4.33003 13.1667 3.8467 13.0667 3.48003 12.9C2.9467 12.7 2.4717 12.3917 2.05503 11.975C1.63836 11.5583 1.33003 11.0833 1.13003 10.55C0.963363 10.1833 0.863363 9.7 0.830029 9.1C0.796696 8.73333 0.780029 8.03333 0.780029 7C0.780029 5.96667 0.796696 5.26667 0.830029 4.9C0.863363 4.3 0.963363 3.81667 1.13003 3.45C1.33003 2.91667 1.63836 2.44167 2.05503 2.025C2.4717 1.60833 2.9467 1.3 3.48003 1.1C3.8467 0.933333 4.33003 0.833333 4.93003 0.8C5.2967 0.766666 5.9967 0.75 7.03003 0.75H7.18003C8.08003 0.75 8.6967 0.766666 9.03003 0.8C9.56336 0.833333 9.9967 0.9 10.33 1C10.4967 1.06667 10.6217 1.175 10.705 1.325C10.7884 1.475 10.805 1.63333 10.755 1.8C10.705 1.96667 10.605 2.08333 10.455 2.15C10.305 2.21667 10.1467 2.23333 9.98003 2.2ZM13.18 2.6C13.28 2.76667 13.305 2.93333 13.255 3.1C13.205 3.26667 13.1134 3.4 12.98 3.5L12.83 3.55C11.6967 4.21667 10.6884 5.025 9.80503 5.975C8.9217 6.925 8.1967 7.98333 7.63003 9.15C7.56336 9.35 7.4217 9.46667 7.20503 9.5C6.98836 9.53333 6.7967 9.48333 6.63003 9.35L4.13003 6.8C3.9967 6.7 3.93003 6.55833 3.93003 6.375C3.93003 6.19167 3.9967 6.04167 4.13003 5.925C4.26336 5.80833 4.41336 5.75 4.58003 5.75C4.7467 5.75 4.8967 5.81667 5.03003 5.95L6.93003 7.85C7.56336 6.75 8.3217 5.74167 9.20503 4.825C10.0884 3.90833 11.08 3.13333 12.18 2.5L12.33 2.4C12.4967 2.3 12.6634 2.275 12.83 2.325C12.9967 2.375 13.1134 2.46667 13.18 2.6Z" fill="#131836"/>
</svg>
