<svg width="14" height="15" viewBox="0 0 14 15" fill="none" xmlns="http://www.w3.org/2000/svg">
<path d="M8.31953 5.32012C7.7862 4.98678 7.4362 4.77012 7.26953 4.67012C6.90286 4.50345 6.5862 4.43678 6.31953 4.47012C5.85286 4.50345 5.46953 4.73678 5.16953 5.17012C5.0362 5.37012 4.95286 5.67012 4.91953 6.07012C4.8862 6.30345 4.86953 6.75345 4.86953 7.42012C4.86953 8.08678 4.8862 8.53678 4.91953 8.77012C4.95286 9.17012 5.0362 9.47012 5.16953 9.67012C5.46953 10.1035 5.85286 10.3368 6.31953 10.3701C6.5862 10.4035 6.90286 10.3368 7.26953 10.1701C7.4362 10.0701 7.7862 9.85345 8.31953 9.52012H8.36953C8.90286 9.18678 9.25286 8.95345 9.41953 8.82012C9.75286 8.58678 9.96953 8.35345 10.0695 8.12012C10.2362 7.65345 10.2362 7.18678 10.0695 6.72012C9.96953 6.48678 9.75286 6.25345 9.41953 6.02012C9.25286 5.88678 8.90286 5.65345 8.36953 5.32012H8.31953ZM6.41953 5.37012C6.51953 5.37012 6.65286 5.41178 6.81953 5.49512C6.9862 5.57845 7.32786 5.78678 7.84453 6.12012C8.3612 6.45345 8.70286 6.67845 8.86953 6.79512C9.0362 6.91178 9.1362 7.02012 9.16953 7.12012C9.26953 7.32012 9.26953 7.52012 9.16953 7.72012C9.1362 7.82012 9.0362 7.92845 8.86953 8.04512C8.70286 8.16178 8.3612 8.38678 7.84453 8.72012C7.32786 9.05345 6.9862 9.26178 6.81953 9.34512C6.65286 9.42845 6.51953 9.47012 6.41953 9.47012C6.21953 9.43678 6.06953 9.33678 5.96953 9.17012C5.90286 9.07012 5.8612 8.91178 5.84453 8.69512C5.82786 8.47845 5.81953 8.05345 5.81953 7.42012C5.81953 6.78678 5.82786 6.36178 5.84453 6.14512C5.8612 5.92845 5.90286 5.77012 5.96953 5.67012C6.06953 5.50345 6.21953 5.40345 6.41953 5.37012ZM7.21953 0.720117C5.9862 0.720117 4.8612 1.02012 3.84453 1.62012C2.82786 2.22012 2.01953 3.02845 1.41953 4.04512C0.819531 5.06178 0.519531 6.18678 0.519531 7.42012C0.519531 8.65345 0.819531 9.77845 1.41953 10.7951C2.01953 11.8118 2.82786 12.6201 3.84453 13.2201C4.8612 13.8201 5.9862 14.1201 7.21953 14.1201C8.45286 14.1201 9.57786 13.8201 10.5945 13.2201C11.6112 12.6201 12.4195 11.8118 13.0195 10.7951C13.6195 9.77845 13.9195 8.65345 13.9195 7.42012C13.9195 6.18678 13.6195 5.06178 13.0195 4.04512C12.4195 3.02845 11.6112 2.22012 10.5945 1.62012C9.57786 1.02012 8.45286 0.720117 7.21953 0.720117ZM1.41953 7.42012C1.41953 6.38678 1.67786 5.42012 2.19453 4.52012C2.7112 3.62012 3.41953 2.91178 4.31953 2.39512C5.21953 1.87845 6.1862 1.62012 7.21953 1.62012C8.25286 1.62012 9.21953 1.87845 10.1195 2.39512C11.0195 2.91178 11.7279 3.62012 12.2445 4.52012C12.7612 5.42012 13.0195 6.38678 13.0195 7.42012C13.0195 8.45345 12.7612 9.42012 12.2445 10.3201C11.7279 11.2201 11.0195 11.9285 10.1195 12.4451C9.21953 12.9618 8.25286 13.2201 7.21953 13.2201C6.1862 13.2201 5.21953 12.9618 4.31953 12.4451C3.41953 11.9285 2.7112 11.2201 2.19453 10.3201C1.67786 9.42012 1.41953 8.45345 1.41953 7.42012Z" fill="#7E8297"/>
</svg>
