<svg width="13" height="12" viewBox="0 0 13 12" fill="none" xmlns="http://www.w3.org/2000/svg">
<path d="M7.72021 0.777344C7.43766 0.476562 7.09814 0.323894 6.70166 0.319336C6.30518 0.314778 5.9611 0.449219 5.66943 0.722656C5.6512 0.722656 5.63753 0.727214 5.62842 0.736328C5.6193 0.745442 5.61019 0.754558 5.60107 0.763672L1.41748 5.15234C1.27165 5.29818 1.16227 5.46452 1.08936 5.65137C1.01644 5.83822 0.97998 6.0319 0.97998 6.23242V10.1562C0.97998 10.5755 1.12354 10.9355 1.41064 11.2363C1.69775 11.5371 2.05094 11.6875 2.47021 11.6875H10.8647C11.284 11.6875 11.6372 11.5371 11.9243 11.2363C12.2114 10.9355 12.355 10.5755 12.355 10.1562V6.23242C12.355 6.0319 12.3185 5.83822 12.2456 5.65137C12.1727 5.46452 12.0679 5.29818 11.9312 5.15234L7.72021 0.777344ZM6.18896 1.41992C6.19808 1.41081 6.20719 1.40397 6.21631 1.39941C6.22542 1.39486 6.22998 1.38802 6.22998 1.37891C6.35758 1.2513 6.50342 1.18978 6.66748 1.19434C6.83154 1.19889 6.97282 1.26042 7.09131 1.37891L11.3022 5.75391C11.3569 5.81771 11.4002 5.89062 11.4321 5.97266C11.464 6.05469 11.48 6.14128 11.48 6.23242V10.1562C11.48 10.3477 11.4185 10.5049 11.2954 10.6279C11.1724 10.751 11.0288 10.8125 10.8647 10.8125H2.47021C2.30615 10.8125 2.1626 10.751 2.03955 10.6279C1.9165 10.5049 1.85498 10.3477 1.85498 10.1562V6.23242C1.85498 6.14128 1.87093 6.05469 1.90283 5.97266C1.93473 5.89062 1.98258 5.81771 2.04639 5.75391L6.18896 1.41992ZM5.1499 7.35352C5.1499 6.93424 5.29574 6.57878 5.5874 6.28711C5.87907 5.99544 6.22998 5.84961 6.64014 5.84961C7.05941 5.84961 7.41488 5.99544 7.70654 6.28711C7.99821 6.57878 8.14404 6.93424 8.14404 7.35352V7.85938C8.14404 8.26953 7.99821 8.62044 7.70654 8.91211C7.41488 9.20378 7.05941 9.34961 6.64014 9.34961C6.22998 9.34961 5.87907 9.20378 5.5874 8.91211C5.29574 8.62044 5.1499 8.26953 5.1499 7.85938V7.35352ZM6.64014 8.47461C6.81331 8.47461 6.96143 8.41536 7.08447 8.29688C7.20752 8.17839 7.26904 8.03255 7.26904 7.85938V7.35352C7.26904 7.18034 7.20752 7.03223 7.08447 6.90918C6.96143 6.78613 6.81331 6.72461 6.64014 6.72461C6.47607 6.72461 6.33252 6.78613 6.20947 6.90918C6.08643 7.03223 6.0249 7.18034 6.0249 7.35352V7.85938C6.0249 8.03255 6.08643 8.17839 6.20947 8.29688C6.33252 8.41536 6.47607 8.47461 6.64014 8.47461Z" fill="#131836"/>
</svg>
