<svg width="12" height="12" viewBox="0 0 12 12" fill="none" xmlns="http://www.w3.org/2000/svg">
<path d="M7.08008 0.777344C6.79753 0.476562 6.45801 0.323893 6.06152 0.319336C5.66504 0.314779 5.32096 0.449219 5.0293 0.722656C5.01107 0.722656 4.9974 0.727214 4.98828 0.736328C4.97917 0.745443 4.97005 0.754557 4.96094 0.763672L0.777344 5.15234C0.63151 5.29818 0.522135 5.46452 0.449219 5.65137C0.376302 5.83822 0.339844 6.0319 0.339844 6.23242V10.1562C0.339844 10.5755 0.483398 10.9355 0.770508 11.2363C1.05762 11.5371 1.41081 11.6875 1.83008 11.6875H10.2246C10.6439 11.6875 10.9971 11.5371 11.2842 11.2363C11.5713 10.9355 11.7148 10.5755 11.7148 10.1562V6.23242C11.7148 6.0319 11.6784 5.83822 11.6055 5.65137C11.5326 5.46452 11.4277 5.29818 11.291 5.15234L7.08008 0.777344ZM5.54883 1.41992C5.55794 1.41081 5.56706 1.40397 5.57617 1.39941C5.58529 1.39486 5.58984 1.38802 5.58984 1.37891C5.71745 1.2513 5.86328 1.18978 6.02734 1.19434C6.19141 1.19889 6.33268 1.26042 6.45117 1.37891L10.6621 5.75391C10.7168 5.81771 10.7601 5.89062 10.792 5.97266C10.8239 6.05469 10.8398 6.14128 10.8398 6.23242V10.1562C10.8398 10.3477 10.7783 10.5049 10.6553 10.6279C10.5322 10.751 10.3887 10.8125 10.2246 10.8125H1.83008C1.66602 10.8125 1.52246 10.751 1.39941 10.6279C1.27637 10.5049 1.21484 10.3477 1.21484 10.1562V6.23242C1.21484 6.14128 1.23079 6.05469 1.2627 5.97266C1.2946 5.89062 1.34245 5.81771 1.40625 5.75391L5.54883 1.41992ZM4.50977 7.35352C4.50977 6.93424 4.6556 6.57878 4.94727 6.28711C5.23893 5.99544 5.58984 5.84961 6 5.84961C6.41927 5.84961 6.77474 5.99544 7.06641 6.28711C7.35807 6.57878 7.50391 6.93424 7.50391 7.35352V7.85938C7.50391 8.26953 7.35807 8.62044 7.06641 8.91211C6.77474 9.20378 6.41927 9.34961 6 9.34961C5.58984 9.34961 5.23893 9.20378 4.94727 8.91211C4.6556 8.62044 4.50977 8.26953 4.50977 7.85938V7.35352ZM6 8.47461C6.17318 8.47461 6.32129 8.41536 6.44434 8.29688C6.56738 8.17839 6.62891 8.03255 6.62891 7.85938V7.35352C6.62891 7.18034 6.56738 7.03223 6.44434 6.90918C6.32129 6.78613 6.17318 6.72461 6 6.72461C5.83594 6.72461 5.69238 6.78613 5.56934 6.90918C5.44629 7.03223 5.38477 7.18034 5.38477 7.35352V7.85938C5.38477 8.03255 5.44629 8.17839 5.56934 8.29688C5.69238 8.41536 5.83594 8.47461 6 8.47461Z" fill="#585D69"/>
</svg>
