<svg width="15" height="16" viewBox="0 0 15 16" fill="none" xmlns="http://www.w3.org/2000/svg">
<path d="M9.2999 3.35918C8.0999 3.09251 6.8999 3.09251 5.6999 3.35918C4.93324 3.55918 4.26657 3.94251 3.6999 4.50918C3.13324 5.07585 2.7499 5.74251 2.5499 6.50918C2.28324 7.70918 2.28324 8.90918 2.5499 10.1092C2.7499 10.8758 3.13324 11.5425 3.6999 12.1092C4.26657 12.6758 4.93324 13.0592 5.6999 13.2592C6.8999 13.5258 8.0999 13.5258 9.2999 13.2592C10.0666 13.0592 10.7332 12.6758 11.2999 12.1092C11.8666 11.5425 12.2499 10.8758 12.4499 10.1092C12.7166 8.90918 12.7166 7.70918 12.4499 6.50918C12.2499 5.74251 11.8666 5.07585 11.2999 4.50918C10.7332 3.94251 10.0666 3.55918 9.2999 3.35918ZM5.4999 2.45918C6.83324 2.12585 8.16657 2.12585 9.4999 2.45918C10.4666 2.69251 11.2916 3.15085 11.9749 3.83418C12.6582 4.51751 13.1166 5.34251 13.3499 6.30918C13.6832 7.64251 13.6832 8.97585 13.3499 10.3092C13.1166 11.2758 12.6582 12.1008 11.9749 12.7842C11.2916 13.4675 10.4666 13.9258 9.4999 14.1592C8.16657 14.4925 6.83324 14.4925 5.4999 14.1592C4.53324 13.9258 3.70824 13.4675 3.0249 12.7842C2.34157 12.1008 1.88324 11.2758 1.6499 10.3092C1.31657 8.97585 1.31657 7.64251 1.6499 6.30918C1.88324 5.34251 2.34157 4.51751 3.0249 3.83418C3.70824 3.15085 4.53324 2.69251 5.4999 2.45918ZM6.0499 6.85918C6.1499 6.79251 6.26657 6.75918 6.3999 6.75918C6.53324 6.75918 6.6499 6.79251 6.7499 6.85918L7.4999 7.65918L8.2499 6.85918C8.3499 6.79251 8.46657 6.75918 8.5999 6.75918C8.73324 6.75918 8.84157 6.80085 8.9249 6.88418C9.00824 6.96751 9.0499 7.07585 9.0499 7.20918C9.0499 7.34251 9.01657 7.45918 8.9499 7.55918L8.1499 8.30918L8.9499 9.05918C9.01657 9.15918 9.0499 9.27585 9.0499 9.40918C9.0499 9.54251 9.00824 9.65085 8.9249 9.73418C8.84157 9.81751 8.73324 9.85918 8.5999 9.85918C8.46657 9.85918 8.3499 9.82585 8.2499 9.75918L7.4999 8.95918L6.7499 9.75918C6.6499 9.82585 6.53324 9.85918 6.3999 9.85918C6.26657 9.85918 6.15824 9.81751 6.0749 9.73418C5.99157 9.65085 5.9499 9.54251 5.9499 9.40918C5.9499 9.27585 5.98324 9.15918 6.0499 9.05918L6.8499 8.30918L6.0499 7.55918C5.98324 7.45918 5.9499 7.34251 5.9499 7.20918C5.9499 7.07585 5.98324 6.95918 6.0499 6.85918Z" fill="#212529"/>
</svg>
