<svg width="14" height="15" viewBox="0 0 14 15" fill="none" xmlns="http://www.w3.org/2000/svg">
<g clip-path="url(#clip0_6_2724)">
<path d="M12.6841 1.55981H11.3169C11.0525 1.55981 10.827 1.65552 10.6401 1.84692C10.4533 2.03833 10.3598 2.26619 10.3598 2.53052V8.83325C10.3598 9.10669 10.4533 9.33683 10.6401 9.52368C10.827 9.71053 11.0525 9.80396 11.3169 9.80396H12.6841C12.9575 9.80396 13.1876 9.71053 13.3745 9.52368C13.5613 9.33683 13.6548 9.10669 13.6548 8.83325V2.53052C13.6548 2.26619 13.5613 2.03833 13.3745 1.84692C13.1876 1.65552 12.9575 1.55981 12.6841 1.55981ZM3.29148 1.4231C2.75372 1.4231 2.27976 1.59627 1.8696 1.94263C1.45945 2.28898 1.2088 2.72648 1.11765 3.25513L0.502417 6.82349C0.393042 7.48885 0.557105 8.08358 0.994605 8.60767C1.4321 9.13175 1.99265 9.3938 2.67624 9.3938H5.26023C5.26023 9.3938 5.19187 9.58748 5.05515 9.97485C4.91843 10.3622 4.85007 10.8977 4.85007 11.5813C4.85007 12.4107 5.07794 12.9849 5.53367 13.304C5.9894 13.623 6.35854 13.7825 6.64109 13.7825C6.91453 13.7825 7.1196 13.6799 7.25632 13.4749C7.39304 13.2698 7.4614 12.8209 7.4614 12.1282C7.4614 11.481 7.70522 10.9045 8.19285 10.3987C8.68048 9.89282 9.12937 9.50773 9.53953 9.24341V2.43481C9.31166 2.33455 9.03367 2.22518 8.70554 2.10669C8.37742 1.9882 7.99005 1.87883 7.54343 1.77856C7.09682 1.6783 6.59096 1.59627 6.02585 1.53247C5.46986 1.45955 4.85007 1.4231 4.16648 1.4231H3.29148Z" fill="#585D69"/>
</g>
<defs>
<clipPath id="clip0_6_2724">
<rect width="13.19" height="14" fill="white" transform="matrix(1 0 0 -1 0.469971 14.22)"/>
</clipPath>
</defs>
</svg>
