<svg width="16" height="16" viewBox="0 0 16 16" fill="none" xmlns="http://www.w3.org/2000/svg">
<path d="M10.1601 2.06001C8.72005 1.74001 7.28005 1.74001 5.84005 2.06001C4.92005 2.30001 4.12005 2.76001 3.44005 3.44001C2.76005 4.12001 2.30005 4.92001 2.06005 5.84001C1.74005 7.28001 1.74005 8.72001 2.06005 10.16C2.30005 11.08 2.76005 11.88 3.44005 12.56C4.12005 13.24 4.92005 13.7 5.84005 13.94C7.28005 14.26 8.72005 14.26 10.1601 13.94C11.0801 13.7 11.8801 13.24 12.5601 12.56C13.2401 11.88 13.7001 11.08 13.9401 10.16C14.2601 8.72001 14.2601 7.28001 13.9401 5.84001C13.7001 4.92001 13.2401 4.12001 12.5601 3.44001C11.8801 2.76001 11.0801 2.30001 10.1601 2.06001ZM5.60005 0.980007C7.20005 0.580008 8.80005 0.580008 10.4001 0.980007C11.5601 1.26001 12.5501 1.81001 13.3701 2.63001C14.1901 3.45001 14.7401 4.44001 15.0201 5.60001C15.4201 7.20001 15.4201 8.80001 15.0201 10.4C14.7401 11.56 14.1901 12.55 13.3701 13.37C12.5501 14.19 11.5601 14.74 10.4001 15.02C8.80005 15.42 7.20005 15.42 5.60005 15.02C4.44005 14.74 3.45005 14.19 2.63005 13.37C1.81005 12.55 1.26005 11.56 0.980054 10.4C0.580054 8.80001 0.580054 7.20001 0.980054 5.60001C1.26005 4.44001 1.81005 3.45001 2.63005 2.63001C3.45005 1.81001 4.44005 1.26001 5.60005 0.980007ZM10.2801 8.36001C10.4001 8.48001 10.4601 8.61001 10.4601 8.75001C10.4601 8.89001 10.4001 9.02001 10.2801 9.14001L8.42005 11C8.30005 11.12 8.16005 11.18 8.00005 11.18C7.84005 11.18 7.70005 11.12 7.58005 11L5.72005 9.14001C5.60005 9.02001 5.54005 8.89001 5.54005 8.75001C5.54005 8.61001 5.60005 8.48001 5.72005 8.36001C5.84005 8.24001 5.98005 8.18001 6.14005 8.18001C6.30005 8.18001 6.42005 8.24001 6.50005 8.36001L7.46005 9.26001V5.36001C7.46005 5.20001 7.51005 5.07001 7.61005 4.97001C7.71005 4.87001 7.84005 4.82001 8.00005 4.82001C8.16005 4.82001 8.29005 4.87001 8.39005 4.97001C8.49005 5.07001 8.54005 5.20001 8.54005 5.36001V9.26001L9.50005 8.36001C9.58005 8.24001 9.70005 8.18001 9.86005 8.18001C10.0201 8.18001 10.1601 8.24001 10.2801 8.36001Z" fill="#131836"/>
</svg>
