<svg width="12" height="7" viewBox="0 0 12 7" fill="none" xmlns="http://www.w3.org/2000/svg">
<path d="M5.53415 6.40027C5.44036 6.40027 5.3446 6.38073 5.2469 6.34165C5.14919 6.30256 5.06516 6.24785 4.99481 6.1775L0.22279 1.40548C0.0742741 1.25696 1.71661e-05 1.07523 1.71661e-05 0.86027C1.71661e-05 0.645314 0.0742741 0.463579 0.22279 0.315064C0.379121 0.158732 0.562811 0.0805664 0.773858 0.0805664C0.984906 0.0805664 1.1686 0.158732 1.32493 0.315064L5.53415 4.52429L9.75511 0.315064C9.90362 0.158732 10.0854 0.0805664 10.3003 0.0805664C10.5153 0.0805664 10.7009 0.158732 10.8572 0.315064C11.0058 0.463579 11.08 0.645314 11.08 0.86027C11.08 1.07523 11.0058 1.25696 10.8572 1.40548L6.08522 6.1775C6.00706 6.24785 5.92108 6.30256 5.82728 6.34165C5.73348 6.38073 5.63577 6.40027 5.53415 6.40027Z" fill="#131836"/>
</svg>
