<svg width="15" height="16" viewBox="0 0 15 16" fill="none" xmlns="http://www.w3.org/2000/svg">
<path d="M10.2999 2.75918C10.6666 2.39251 11.1166 2.20918 11.6499 2.20918C12.1832 2.20918 12.6416 2.40085 13.0249 2.78418C13.4082 3.16751 13.5999 3.62585 13.5999 4.15918C13.5999 4.69251 13.4166 5.14251 13.0499 5.50918L10.7999 7.75918C9.73324 8.82585 8.48324 9.54251 7.0499 9.90918L6.5999 10.0092C6.36657 10.0758 6.15824 10.0175 5.9749 9.83418C5.79157 9.65085 5.73324 9.44251 5.7999 9.20918L5.8999 8.75918C6.26657 7.32585 6.98324 6.07585 8.0499 5.00918L10.2999 2.75918ZM11.0999 3.30918C11.0666 3.64251 11.2082 3.96751 11.5249 4.28418C11.8416 4.60085 12.1666 4.74251 12.4999 4.70918C12.5999 4.54251 12.6499 4.35918 12.6499 4.15918C12.6499 3.89251 12.5499 3.65918 12.3499 3.45918C12.1499 3.25918 11.9166 3.15918 11.6499 3.15918C11.4499 3.15918 11.2666 3.20918 11.0999 3.30918ZM11.7499 5.50918C11.4166 5.37585 11.1249 5.18418 10.8749 4.93418C10.6249 4.68418 10.4332 4.39251 10.2999 4.05918L8.6999 5.70918C7.76657 6.60918 7.1499 7.69251 6.8499 8.95918C8.11657 8.65918 9.1999 8.04251 10.0999 7.10918L11.7499 5.50918ZM7.4999 3.15918C6.8999 3.15918 6.2999 3.22585 5.6999 3.35918C4.93324 3.55918 4.26657 3.94251 3.6999 4.50918C3.13324 5.07585 2.7499 5.74251 2.5499 6.50918C2.28324 7.70918 2.28324 8.90918 2.5499 10.1092C2.7499 10.8758 3.13324 11.5425 3.6999 12.1092C4.26657 12.6758 4.93324 13.0592 5.6999 13.2592C6.8999 13.5258 8.0999 13.5258 9.2999 13.2592C10.0666 13.0592 10.7332 12.6758 11.2999 12.1092C11.8666 11.5425 12.2499 10.8758 12.4499 10.1092C12.5832 9.50918 12.6499 8.90918 12.6499 8.30918C12.6499 8.17585 12.6999 8.06751 12.7999 7.98418C12.8999 7.90085 13.0082 7.85918 13.1249 7.85918C13.2416 7.85918 13.3499 7.90085 13.4499 7.98418C13.5499 8.06751 13.5999 8.17585 13.5999 8.30918C13.5999 8.97585 13.5166 9.64251 13.3499 10.3092C13.1166 11.2758 12.6582 12.1008 11.9749 12.7842C11.2916 13.4675 10.4666 13.9258 9.4999 14.1592C8.16657 14.4925 6.83324 14.4925 5.4999 14.1592C4.53324 13.9258 3.70824 13.4675 3.0249 12.7842C2.34157 12.1008 1.88324 11.2758 1.6499 10.3092C1.31657 8.97585 1.31657 7.64251 1.6499 6.30918C1.88324 5.34251 2.34157 4.51751 3.0249 3.83418C3.70824 3.15085 4.53324 2.69251 5.4999 2.45918C6.16657 2.29251 6.83324 2.20918 7.4999 2.20918C7.63324 2.20918 7.74157 2.25918 7.8249 2.35918C7.90824 2.45918 7.9499 2.56751 7.9499 2.68418C7.9499 2.80085 7.90824 2.90918 7.8249 3.00918C7.74157 3.10918 7.63324 3.15918 7.4999 3.15918Z" fill="#212529"/>
</svg>
