<svg width="16" height="16" viewBox="0 0 16 16" fill="none" xmlns="http://www.w3.org/2000/svg">
<path d="M7.59023 6.19082C7.1569 6.19082 6.79857 6.33249 6.51523 6.61582C6.2319 6.89915 6.09023 7.25749 6.09023 7.69082C6.09023 8.12415 6.2319 8.48249 6.51523 8.76582C6.79857 9.04915 7.1569 9.19082 7.59023 9.19082C8.02357 9.19082 8.3819 9.04915 8.66523 8.76582C8.94857 8.48249 9.09023 8.12415 9.09023 7.69082C9.09023 7.25749 8.94857 6.89915 8.66523 6.61582C8.3819 6.33249 8.02357 6.19082 7.59023 6.19082ZM5.14023 7.69082C5.14023 7.02415 5.3819 6.44915 5.86523 5.96582C6.34857 5.48249 6.92357 5.24082 7.59023 5.24082C8.2569 5.24082 8.8319 5.48249 9.31523 5.96582C9.79857 6.44915 10.0402 7.02415 10.0402 7.69082C10.0402 8.35749 9.79857 8.93249 9.31523 9.41582C8.8319 9.89915 8.2569 10.1408 7.59023 10.1408C6.92357 10.1408 6.34857 9.89915 5.86523 9.41582C5.3819 8.93249 5.14023 8.35749 5.14023 7.69082ZM1.74023 6.64082C2.44023 5.34082 3.29857 4.33249 4.31523 3.61582C5.3319 2.89915 6.42357 2.54082 7.59023 2.54082C8.7569 2.54082 9.84857 2.89915 10.8652 3.61582C11.8819 4.33249 12.7402 5.34082 13.4402 6.64082C13.6069 6.97415 13.6902 7.32415 13.6902 7.69082C13.6902 8.05749 13.6069 8.40749 13.4402 8.74082C12.7402 10.0408 11.8819 11.0492 10.8652 11.7658C9.84857 12.4825 8.7569 12.8408 7.59023 12.8408C6.42357 12.8408 5.3319 12.4825 4.31523 11.7658C3.29857 11.0492 2.44023 10.0408 1.74023 8.74082C1.57357 8.40749 1.49023 8.05749 1.49023 7.69082C1.49023 7.32415 1.57357 6.97415 1.74023 6.64082ZM7.59023 3.49082C6.62357 3.49082 5.69857 3.79915 4.81523 4.41582C3.9319 5.03249 3.19023 5.92415 2.59023 7.09082C2.49023 7.25749 2.44023 7.45749 2.44023 7.69082C2.44023 7.92415 2.49023 8.12415 2.59023 8.29082C3.19023 9.45749 3.9319 10.3492 4.81523 10.9658C5.69857 11.5825 6.62357 11.8908 7.59023 11.8908C8.5569 11.8908 9.4819 11.5825 10.3652 10.9658C11.2486 10.3492 11.9902 9.45749 12.5902 8.29082C12.6902 8.12415 12.7402 7.92415 12.7402 7.69082C12.7402 7.45749 12.6902 7.25749 12.5902 7.09082C11.9902 5.92415 11.2486 5.03249 10.3652 4.41582C9.4819 3.79915 8.5569 3.49082 7.59023 3.49082Z" fill="#212529"/>
</svg>
