<svg width="18" height="18" viewBox="0 0 18 18" fill="none" xmlns="http://www.w3.org/2000/svg">
<path d="M8.56055 7.13672C8.33789 6.83203 8.08887 6.54492 7.81348 6.27539C7.53809 6.00586 7.23047 5.77734 6.89062 5.58984C6.71484 5.49609 6.52734 5.41113 6.32812 5.33496C6.12891 5.25879 5.92969 5.20312 5.73047 5.16797C5.50781 5.13281 5.28516 5.11523 5.0625 5.11523C4.83984 5.11523 4.61719 5.13281 4.39453 5.16797C3.65625 5.27344 3.00293 5.58398 2.43457 6.09961C1.86621 6.61523 1.48242 7.23047 1.2832 7.94531C1.08398 8.66016 1.0957 9.39258 1.31836 10.1426C1.54102 10.8926 1.94531 11.502 2.53125 11.9707C2.67188 12.0879 2.81836 12.1963 2.9707 12.2959C3.12305 12.3955 3.28125 12.4805 3.44531 12.5508C3.64453 12.6328 3.84082 12.7002 4.03418 12.7529C4.22754 12.8057 4.42969 12.8438 4.64062 12.8672C5.05078 12.9141 5.46094 12.8906 5.87109 12.7969C6.28125 12.7031 6.66211 12.5508 7.01367 12.3398C7.35352 12.1289 7.6582 11.8857 7.92773 11.6104C8.19727 11.335 8.44336 11.0391 8.66602 10.7227C8.8418 10.4766 9 10.2217 9.14062 9.95801C9.28125 9.69434 9.4043 9.42188 9.50977 9.14062C9.52148 9.11719 9.53027 9.09082 9.53613 9.06152C9.54199 9.03223 9.55078 9.00586 9.5625 8.98242C9.5625 9.00586 9.55664 9.0293 9.54492 9.05273C9.5332 9.07617 9.52148 9.09961 9.50977 9.12305C9.61523 8.87695 9.73535 8.63672 9.87012 8.40234C10.0049 8.16797 10.1484 7.93945 10.3008 7.7168C10.3125 7.70508 10.3242 7.69043 10.3359 7.67285C10.3477 7.65527 10.3594 7.64062 10.3711 7.62891C10.3711 7.62891 10.374 7.62598 10.3799 7.62012C10.3857 7.61426 10.3887 7.61133 10.3887 7.61133C10.4121 7.58789 10.4062 7.59668 10.3711 7.6377C10.3359 7.67871 10.3301 7.6875 10.3535 7.66406C10.377 7.64062 10.3975 7.61719 10.415 7.59375C10.4326 7.57031 10.4531 7.54688 10.4766 7.52344C10.5117 7.46484 10.5498 7.41504 10.5908 7.37402C10.6318 7.33301 10.6758 7.28906 10.7227 7.24219C10.7578 7.19531 10.7988 7.14844 10.8457 7.10156C10.8926 7.05469 10.9395 7.01367 10.9863 6.97852C11.0098 6.95508 11.0332 6.93164 11.0566 6.9082C11.0801 6.88477 11.1035 6.86719 11.127 6.85547C11.1387 6.84375 11.1504 6.83203 11.1621 6.82031C11.1738 6.80859 11.1855 6.80273 11.1973 6.80273C11.209 6.79102 11.2207 6.78223 11.2324 6.77637C11.2441 6.77051 11.2324 6.7793 11.1973 6.80273C11.1504 6.82617 11.1387 6.83203 11.1621 6.82031C11.1855 6.80859 11.1973 6.80273 11.1973 6.80273C11.3145 6.70898 11.4375 6.62402 11.5664 6.54785C11.6953 6.47168 11.8301 6.4043 11.9707 6.3457C11.9473 6.35742 11.9268 6.36621 11.9092 6.37207C11.8916 6.37793 11.8711 6.38672 11.8477 6.39844C11.9766 6.33984 12.1113 6.29297 12.252 6.25781C12.3926 6.22266 12.5332 6.19336 12.6738 6.16992C12.6504 6.16992 12.627 6.17285 12.6035 6.17871C12.5801 6.18457 12.5566 6.1875 12.5332 6.1875C12.6855 6.17578 12.835 6.16992 12.9814 6.16992C13.1279 6.16992 13.2773 6.17578 13.4297 6.1875C13.4062 6.1875 13.3828 6.1875 13.3594 6.1875C13.3359 6.1875 13.3125 6.18164 13.2891 6.16992C13.4297 6.19336 13.5703 6.22559 13.7109 6.2666C13.8516 6.30762 13.9922 6.35156 14.1328 6.39844C14.1094 6.39844 14.0859 6.39258 14.0625 6.38086C14.0391 6.36914 14.0215 6.35742 14.0098 6.3457C14.1035 6.39258 14.1973 6.44238 14.291 6.49512C14.3848 6.54785 14.4785 6.60352 14.5723 6.66211C14.5957 6.67383 14.6191 6.68848 14.6426 6.70605C14.666 6.72363 14.6836 6.73828 14.6953 6.75C14.7188 6.76172 14.7363 6.77344 14.748 6.78516C14.7598 6.79688 14.7363 6.7793 14.6777 6.73242C14.6895 6.74414 14.7012 6.75293 14.7129 6.75879C14.7246 6.76465 14.7363 6.77344 14.748 6.78516C14.7832 6.82031 14.8213 6.85547 14.8623 6.89062C14.9033 6.92578 14.9414 6.96094 14.9766 6.99609C15.0117 7.03125 15.0469 7.06934 15.082 7.11035C15.1172 7.15137 15.1523 7.18945 15.1875 7.22461C15.1875 7.23633 15.1963 7.24805 15.2139 7.25977C15.2314 7.27148 15.2402 7.2832 15.2402 7.29492C15.2402 7.2832 15.2285 7.26562 15.2051 7.24219C15.1816 7.21875 15.1816 7.22461 15.2051 7.25977C15.2285 7.2832 15.2461 7.30664 15.2578 7.33008C15.2695 7.35352 15.2871 7.37695 15.3105 7.40039C15.3691 7.48242 15.4248 7.57324 15.4775 7.67285C15.5303 7.77246 15.5742 7.86914 15.6094 7.96289C15.5977 7.93945 15.5889 7.91895 15.583 7.90137C15.5771 7.88379 15.5684 7.86328 15.5566 7.83984C15.6152 7.96875 15.665 8.10352 15.7061 8.24414C15.7471 8.38477 15.7734 8.53125 15.7852 8.68359C15.7852 8.66016 15.7822 8.63672 15.7764 8.61328C15.7705 8.58984 15.7676 8.56641 15.7676 8.54297C15.791 8.69531 15.8027 8.84766 15.8027 9C15.8027 9.15234 15.791 9.30469 15.7676 9.45703C15.7676 9.43359 15.7705 9.41016 15.7764 9.38672C15.7822 9.36328 15.7852 9.33984 15.7852 9.31641C15.7734 9.46875 15.7471 9.61523 15.7061 9.75586C15.665 9.89648 15.6152 10.0312 15.5566 10.1602C15.5684 10.1484 15.5771 10.1309 15.583 10.1074C15.5889 10.084 15.5977 10.0605 15.6094 10.0371C15.5742 10.1426 15.5303 10.2422 15.4775 10.3359C15.4248 10.4297 15.3691 10.5234 15.3105 10.6172C15.2871 10.6289 15.2695 10.6465 15.2578 10.6699C15.2461 10.6934 15.2285 10.7168 15.2051 10.7402C15.1934 10.752 15.1816 10.7666 15.1699 10.7842C15.1582 10.8018 15.1816 10.7754 15.2402 10.7051C15.2285 10.7168 15.2168 10.7285 15.2051 10.7402C15.1934 10.752 15.1875 10.7637 15.1875 10.7754C15.1523 10.8223 15.1172 10.8633 15.082 10.8984C15.0469 10.9336 15.0117 10.9688 14.9766 11.0039C14.9414 11.0391 14.9033 11.0742 14.8623 11.1094C14.8213 11.1445 14.7832 11.1797 14.748 11.2148C14.7363 11.2266 14.7217 11.2383 14.7041 11.25C14.6865 11.2617 14.6777 11.2676 14.6777 11.2676C14.6895 11.2676 14.707 11.2559 14.7305 11.2324C14.7539 11.209 14.7422 11.2148 14.6953 11.25C14.6836 11.2617 14.666 11.2764 14.6426 11.2939C14.6191 11.3115 14.5957 11.3262 14.5723 11.3379C14.4785 11.3965 14.3848 11.4521 14.291 11.5049C14.1973 11.5576 14.1035 11.6074 14.0098 11.6543L14.1328 11.6016C13.9922 11.6602 13.8516 11.707 13.7109 11.7422C13.5703 11.7773 13.4297 11.8066 13.2891 11.8301C13.3125 11.8301 13.3359 11.8271 13.3594 11.8213C13.3828 11.8154 13.4062 11.8125 13.4297 11.8125C13.2773 11.8242 13.1279 11.833 12.9814 11.8389C12.835 11.8447 12.6855 11.8359 12.5332 11.8125C12.5566 11.8125 12.5801 11.8154 12.6035 11.8213C12.627 11.8271 12.6504 11.8301 12.6738 11.8301C12.5332 11.8066 12.3926 11.7773 12.252 11.7422C12.1113 11.707 11.9766 11.6602 11.8477 11.6016L11.9707 11.6543C11.877 11.6191 11.7832 11.5752 11.6895 11.5225C11.5957 11.4697 11.5078 11.4199 11.4258 11.373C11.3906 11.3379 11.3525 11.3086 11.3115 11.2852C11.2705 11.2617 11.2324 11.2324 11.1973 11.1973C11.1504 11.1621 11.1475 11.1621 11.1885 11.1973C11.2295 11.2324 11.2383 11.2383 11.2148 11.2148C11.2031 11.2148 11.1943 11.209 11.1885 11.1973C11.1826 11.1855 11.1738 11.1797 11.1621 11.1797C11.1387 11.1562 11.1182 11.1387 11.1006 11.127C11.083 11.1152 11.0625 11.0977 11.0391 11.0742C10.9688 11.0156 10.8984 10.9512 10.8281 10.8809C10.7578 10.8105 10.6934 10.7402 10.6348 10.6699C10.5996 10.6348 10.5674 10.5996 10.5381 10.5645C10.5088 10.5293 10.4766 10.4941 10.4414 10.459C10.4297 10.4473 10.418 10.4326 10.4062 10.415C10.3945 10.3975 10.3828 10.377 10.3711 10.3535C10.3359 10.3184 10.3359 10.3213 10.3711 10.3623C10.4062 10.4033 10.4121 10.4121 10.3887 10.3887C10.3887 10.377 10.3828 10.3682 10.3711 10.3623C10.3594 10.3564 10.3535 10.3477 10.3535 10.3359C10.3066 10.2773 10.2598 10.2246 10.2129 10.1777C10.166 10.1309 10.1074 10.1016 10.0371 10.0898C9.9668 10.0664 9.89355 10.0605 9.81738 10.0723C9.74121 10.084 9.67969 10.1074 9.63281 10.1426C9.57422 10.1777 9.52148 10.2217 9.47461 10.2744C9.42773 10.3271 9.39844 10.3887 9.38672 10.459C9.375 10.5176 9.36914 10.585 9.36914 10.6611C9.36914 10.7373 9.39258 10.8047 9.43945 10.8633C9.66211 11.168 9.91113 11.4551 10.1865 11.7246C10.4619 11.9941 10.7695 12.2227 11.1094 12.4102C11.2852 12.5039 11.4727 12.5859 11.6719 12.6562C11.8711 12.7266 12.0703 12.7793 12.2695 12.8145C12.4922 12.8613 12.7148 12.8848 12.9375 12.8848C13.1602 12.8848 13.3887 12.8672 13.623 12.832C14.3496 12.7148 14.9971 12.3984 15.5654 11.8828C16.1338 11.3672 16.5176 10.7578 16.7168 10.0547C16.916 9.32812 16.9043 8.59277 16.6816 7.84863C16.459 7.10449 16.0547 6.49219 15.4688 6.01172C15.3281 5.89453 15.1816 5.78906 15.0293 5.69531C14.877 5.60156 14.7188 5.51953 14.5547 5.44922C14.3672 5.35547 14.1738 5.28223 13.9746 5.22949C13.7754 5.17676 13.5703 5.13867 13.3594 5.11523C12.9492 5.06836 12.5391 5.09473 12.1289 5.19434C11.7188 5.29395 11.3379 5.44922 10.9863 5.66016C10.6465 5.85938 10.3418 6.09668 10.0723 6.37207C9.80273 6.64746 9.55664 6.94336 9.33398 7.25977C9.1582 7.50586 9 7.76367 8.85938 8.0332C8.71875 8.30273 8.5957 8.57812 8.49023 8.85938C8.47852 8.88281 8.46973 8.90625 8.46387 8.92969C8.45801 8.95312 8.44922 8.97656 8.4375 9C8.44922 8.97656 8.45801 8.95605 8.46387 8.93848C8.46973 8.9209 8.47852 8.90039 8.49023 8.87695C8.38477 9.12305 8.26465 9.36328 8.12988 9.59766C7.99512 9.83203 7.85156 10.0547 7.69922 10.2656C7.6875 10.2891 7.67578 10.3066 7.66406 10.3184C7.65234 10.3301 7.64062 10.3477 7.62891 10.3711C7.62891 10.3711 7.62598 10.374 7.62012 10.3799C7.61426 10.3857 7.61133 10.3887 7.61133 10.3887C7.58789 10.4121 7.59375 10.4033 7.62891 10.3623C7.66406 10.3213 7.66992 10.3125 7.64648 10.3359C7.63477 10.3594 7.61719 10.3828 7.59375 10.4062C7.57031 10.4297 7.55273 10.4531 7.54102 10.4766C7.49414 10.5234 7.4502 10.5703 7.40918 10.6172C7.36816 10.6641 7.33008 10.7109 7.29492 10.7578C7.24805 10.8047 7.20117 10.8486 7.1543 10.8896C7.10742 10.9307 7.06055 10.9746 7.01367 11.0215C6.99023 11.0449 6.9668 11.0654 6.94336 11.083C6.91992 11.1006 6.89648 11.1211 6.87305 11.1445C6.86133 11.1562 6.84961 11.165 6.83789 11.1709C6.82617 11.1768 6.81445 11.1855 6.80273 11.1973C6.80273 11.209 6.79688 11.2178 6.78516 11.2236C6.77344 11.2295 6.7793 11.2207 6.80273 11.1973C6.84961 11.1621 6.86426 11.1533 6.84668 11.1709C6.8291 11.1885 6.81445 11.1973 6.80273 11.1973C6.68555 11.291 6.5625 11.376 6.43359 11.4521C6.30469 11.5283 6.16992 11.5957 6.0293 11.6543C6.05273 11.6426 6.07324 11.6309 6.09082 11.6191C6.1084 11.6074 6.12891 11.6016 6.15234 11.6016C6.02344 11.6484 5.88867 11.6924 5.74805 11.7334C5.60742 11.7744 5.4668 11.8066 5.32617 11.8301C5.34961 11.8184 5.37305 11.8125 5.39648 11.8125C5.41992 11.8125 5.44336 11.8125 5.4668 11.8125C5.31445 11.8242 5.16504 11.8301 5.01855 11.8301C4.87207 11.8301 4.72266 11.8184 4.57031 11.7949C4.59375 11.8066 4.61719 11.8125 4.64062 11.8125C4.66406 11.8125 4.6875 11.8125 4.71094 11.8125C4.57031 11.8008 4.42969 11.7744 4.28906 11.7334C4.14844 11.6924 4.00781 11.6426 3.86719 11.584L4.00781 11.6367C3.90234 11.6016 3.80273 11.5576 3.70898 11.5049C3.61523 11.4521 3.52148 11.3965 3.42773 11.3379C3.4043 11.3262 3.38379 11.3115 3.36621 11.2939C3.34863 11.2764 3.32812 11.2617 3.30469 11.25C3.28125 11.2383 3.26367 11.2236 3.25195 11.2061C3.24023 11.1885 3.26953 11.209 3.33984 11.2676C3.32812 11.2559 3.31641 11.2471 3.30469 11.2412C3.29297 11.2354 3.27539 11.2266 3.25195 11.2148C3.2168 11.1797 3.18164 11.1445 3.14648 11.1094C3.11133 11.0742 3.07031 11.0391 3.02344 11.0039C2.98828 10.9688 2.95312 10.9307 2.91797 10.8896C2.88281 10.8486 2.85352 10.8105 2.83008 10.7754C2.81836 10.7637 2.80371 10.752 2.78613 10.7402C2.76855 10.7285 2.75977 10.7168 2.75977 10.7051C2.75977 10.7168 2.77148 10.7344 2.79492 10.7578C2.81836 10.7812 2.81836 10.7754 2.79492 10.7402C2.77148 10.7168 2.75391 10.6934 2.74219 10.6699C2.73047 10.6465 2.71289 10.623 2.68945 10.5996C2.63086 10.5059 2.57812 10.4121 2.53125 10.3184C2.48438 10.2246 2.4375 10.1309 2.39062 10.0371C2.40234 10.0605 2.41113 10.0811 2.41699 10.0986C2.42285 10.1162 2.43164 10.1367 2.44336 10.1602C2.38477 10.0195 2.33789 9.87891 2.30273 9.73828C2.26758 9.59766 2.23828 9.45703 2.21484 9.31641C2.21484 9.33984 2.21777 9.36328 2.22363 9.38672C2.22949 9.41016 2.23242 9.43359 2.23242 9.45703C2.20898 9.30469 2.19727 9.14941 2.19727 8.99121C2.19727 8.83301 2.20898 8.67773 2.23242 8.52539C2.23242 8.54883 2.22949 8.57227 2.22363 8.5957C2.21777 8.61914 2.21484 8.64258 2.21484 8.66602C2.23828 8.52539 2.26758 8.38477 2.30273 8.24414C2.33789 8.10352 2.38477 7.96289 2.44336 7.82227C2.43164 7.8457 2.42285 7.86914 2.41699 7.89258C2.41113 7.91602 2.40234 7.93945 2.39062 7.96289C2.4375 7.85742 2.48438 7.75781 2.53125 7.66406C2.57812 7.57031 2.63086 7.47656 2.68945 7.38281C2.71289 7.35938 2.73047 7.33887 2.74219 7.32129C2.75391 7.30371 2.77148 7.2832 2.79492 7.25977C2.80664 7.23633 2.81836 7.21875 2.83008 7.20703C2.8418 7.19531 2.81836 7.22461 2.75977 7.29492C2.77148 7.2832 2.7832 7.27148 2.79492 7.25977C2.80664 7.24805 2.81836 7.23633 2.83008 7.22461C2.85352 7.17773 2.88281 7.13672 2.91797 7.10156C2.95312 7.06641 2.98828 7.03125 3.02344 6.99609C3.07031 6.94922 3.11133 6.9082 3.14648 6.87305C3.18164 6.83789 3.2168 6.80859 3.25195 6.78516C3.26367 6.77344 3.27832 6.75879 3.2959 6.74121C3.31348 6.72363 3.32812 6.71484 3.33984 6.71484C3.32812 6.71484 3.30762 6.72656 3.27832 6.75C3.24902 6.77344 3.25781 6.77344 3.30469 6.75C3.32812 6.72656 3.34863 6.70898 3.36621 6.69727C3.38379 6.68555 3.4043 6.67383 3.42773 6.66211C3.52148 6.5918 3.61523 6.5332 3.70898 6.48633C3.80273 6.43945 3.90234 6.39258 4.00781 6.3457C3.98438 6.35742 3.96094 6.36621 3.9375 6.37207C3.91406 6.37793 3.89062 6.38672 3.86719 6.39844C4.00781 6.33984 4.14844 6.29297 4.28906 6.25781C4.42969 6.22266 4.57031 6.19336 4.71094 6.16992C4.6875 6.16992 4.66406 6.17285 4.64062 6.17871C4.61719 6.18457 4.59375 6.1875 4.57031 6.1875C4.72266 6.16406 4.87207 6.15234 5.01855 6.15234C5.16504 6.15234 5.31445 6.16406 5.4668 6.1875C5.44336 6.1875 5.41992 6.18457 5.39648 6.17871C5.37305 6.17285 5.34961 6.16992 5.32617 6.16992C5.4668 6.18164 5.60742 6.20801 5.74805 6.24902C5.88867 6.29004 6.02344 6.33984 6.15234 6.39844C6.12891 6.38672 6.1084 6.375 6.09082 6.36328C6.07324 6.35156 6.05273 6.3457 6.0293 6.3457C6.12305 6.38086 6.2168 6.42188 6.31055 6.46875C6.4043 6.51562 6.49219 6.56836 6.57422 6.62695C6.62109 6.65039 6.66211 6.67676 6.69727 6.70605C6.73242 6.73535 6.77344 6.76758 6.82031 6.80273C6.85547 6.82617 6.85254 6.82324 6.81152 6.79395C6.77051 6.76465 6.76172 6.75586 6.78516 6.76758C6.79688 6.7793 6.80859 6.78809 6.82031 6.79395C6.83203 6.7998 6.83789 6.80859 6.83789 6.82031C6.86133 6.83203 6.88184 6.84668 6.89941 6.86426C6.91699 6.88184 6.9375 6.90234 6.96094 6.92578C7.03125 6.98438 7.10156 7.0459 7.17188 7.11035C7.24219 7.1748 7.30664 7.24219 7.36523 7.3125C7.40039 7.34766 7.43262 7.38574 7.46191 7.42676C7.49121 7.46777 7.52344 7.50586 7.55859 7.54102C7.57031 7.55273 7.58203 7.56738 7.59375 7.58496C7.60547 7.60254 7.61719 7.61719 7.62891 7.62891C7.66406 7.67578 7.66406 7.67578 7.62891 7.62891C7.59375 7.58203 7.58789 7.57031 7.61133 7.59375C7.62305 7.60547 7.63184 7.61719 7.6377 7.62891C7.64355 7.64062 7.65234 7.65234 7.66406 7.66406C7.69922 7.72266 7.74023 7.77246 7.78711 7.81348C7.83398 7.85449 7.89258 7.88672 7.96289 7.91016C8.0332 7.92188 8.10645 7.9248 8.18262 7.91895C8.25879 7.91309 8.32617 7.89258 8.38477 7.85742C8.43164 7.82227 8.47852 7.77832 8.52539 7.72559C8.57227 7.67285 8.60156 7.61133 8.61328 7.54102C8.63672 7.4707 8.64551 7.40039 8.63965 7.33008C8.63379 7.25977 8.60742 7.19531 8.56055 7.13672Z" fill="#131836"/>
</svg>
