<svg width="60" height="61" viewBox="0 0 60 61" fill="none" xmlns="http://www.w3.org/2000/svg">
<path d="M54.5955 20.0087V49.0671H5.1377V20.0087C5.1377 16.4151 8.05085 13.502 11.6444 13.502H48.0888C51.6824 13.502 54.5955 16.4151 54.5955 20.0087Z" fill="#FEFDFE"/>
<path d="M58.2472 49.6171V49.0674H1.48608V49.6171C1.48608 52.1978 3.57811 54.2898 6.15882 54.2898H53.5745C56.1552 54.2898 58.2472 52.1977 58.2472 49.6171Z" fill="#E9DECE"/>
<path d="M39.1639 17.5225V29.5958L29.8667 34.5143L20.5696 29.5958V17.5225H39.1639Z" fill="#E9DECE"/>
<path d="M46.7816 16.6226L29.8668 25.5684L12.9519 16.614L29.8668 7.67676L46.7816 16.6226Z" fill="#E9DECE"/>
<path d="M58.3805 48.1518H55.6438V20.0135C55.6438 16.1951 52.795 13.0248 49.0171 12.6386C48.5079 12.5965 48.0645 12.9541 48.0135 13.4566C47.9621 13.96 48.3281 14.4088 48.8311 14.4607C51.671 14.7504 53.8128 17.1383 53.8128 20.0136V48.1519H6.18835V20.0135C6.18835 17.1579 8.31753 14.77 11.1409 14.4597C11.6434 14.4042 12.0059 13.9519 11.9509 13.4494C11.8955 12.9469 11.4413 12.584 10.9406 12.6394C7.18749 13.0525 4.3573 16.2218 4.3573 20.0135V48.1518H1.61933C1.11378 48.1518 0.703857 48.5612 0.703857 49.0672V49.6171C0.703857 52.6979 3.21073 55.2048 6.29206 55.2048H53.7078C56.7891 55.2048 59.296 52.6979 59.296 49.6171V49.0672C59.296 48.5612 58.886 48.1518 58.3805 48.1518ZM53.7078 53.3739H6.29206C4.34394 53.3739 2.73695 51.8835 2.55226 49.9827C66.4553 49.9845 51.8701 49.9832 57.4476 49.9827C57.263 51.8835 55.6559 53.3739 53.7078 53.3739Z" fill="#585D69"/>
<path d="M20.6992 23.8682C20.1937 23.8682 19.7837 24.2776 19.7837 24.7836V29.599C19.7837 29.9387 19.9715 30.2499 20.2715 30.4081L29.5731 35.3244C29.7068 35.3951 29.8539 35.4308 30.001 35.4308C30.148 35.4308 30.2951 35.3951 30.4292 35.3244L39.7214 30.4081C40.021 30.2499 40.2087 29.9378 40.2087 29.599V24.7927C40.2087 24.2867 39.7988 23.8772 39.2932 23.8772C38.7877 23.8772 38.3778 24.2867 38.3778 24.7927V29.0474L30.001 33.4801L21.6148 29.0474V24.7836C21.6147 24.2776 21.2048 23.8682 20.6992 23.8682Z" fill="#585D69"/>
<path d="M16.7766 40.8803C16.7766 41.3863 17.1865 41.7957 17.692 41.7957H42.3082C42.8137 41.7957 43.2237 41.3863 43.2237 40.8803C43.2237 40.3742 42.8137 39.9648 42.3082 39.9648H17.6921C17.1865 39.9648 16.7766 40.3742 16.7766 40.8803Z" fill="#585D69"/>
<path d="M46.915 26.4838C47.4205 26.4838 47.8304 26.0744 47.8304 25.5684V16.6225C47.8304 16.3182 47.6388 15.9695 47.3427 15.8134L30.4278 6.86763C30.1605 6.72642 29.8405 6.72642 29.5723 6.86763L12.6574 15.8044C12.3574 15.9626 12.1697 16.2738 12.1697 16.6135C12.1697 16.9523 12.357 17.2634 12.657 17.4225L29.5718 26.3773C29.7055 26.448 29.8529 26.4837 30 26.4837C30.1471 26.4837 30.2941 26.448 30.4278 26.3773L45.9995 18.142V25.5682C45.9995 26.0744 46.4094 26.4838 46.915 26.4838ZM30.0001 24.5322L15.0436 16.6145L30.0001 8.71205L43.2257 15.707H30.0001C29.4946 15.707 29.0846 16.1165 29.0846 16.6225C29.0846 17.1285 29.4946 17.538 30.0001 17.538H43.2254L30.0001 24.5322Z" fill="#585D69"/>
</svg>
