<svg width="60" height="61" viewBox="0 0 60 61" fill="none" xmlns="http://www.w3.org/2000/svg">
<mask id="mask0_6_1964" style="mask-type:luminance" maskUnits="userSpaceOnUse" x="0" y="0" width="60" height="61">
<path d="M60 0.983398H0V60.9834H60V0.983398Z" fill="white"/>
</mask>
<g mask="url(#mask0_6_1964)">
<path d="M57.7118 17.26V47.8886C57.7118 49.9906 56.0078 51.6945 53.9059 51.6945H6.09399C3.992 51.6945 2.28809 49.9905 2.28809 47.8886V17.26C2.28809 15.158 3.99212 13.4541 6.09399 13.4541H53.9059C56.0078 13.454 57.7118 15.158 57.7118 17.26Z" fill="white"/>
<path d="M2.28809 43.3291V47.8884C2.28809 49.9904 3.99211 51.6944 6.09398 51.6944H53.9059C56.0079 51.6944 57.7119 49.9904 57.7119 47.8884V43.3291H2.28809Z" fill="#E9DECE"/>
<path d="M29.9998 61.7915C34.5455 61.7915 38.2306 59.0422 38.2306 55.6507C38.2306 52.2592 34.5455 49.5098 29.9998 49.5098C25.4541 49.5098 21.769 52.2592 21.769 55.6507C21.769 59.0422 25.4541 61.7915 29.9998 61.7915Z" fill="white"/>
<path d="M41.3181 29.6965C47.5718 23.4427 47.5718 13.3034 41.3181 7.04968C35.0643 0.79594 24.925 0.795939 18.6713 7.04968C12.4175 13.3034 12.4175 23.4427 18.6713 29.6965C24.925 35.9502 35.0643 35.9502 41.3181 29.6965Z" fill="#E9DECE"/>
<path d="M30 34.3877C34.0313 34.3877 37.2993 27.2171 37.2993 18.3716C37.2993 9.52614 34.0313 2.35547 30 2.35547C25.9687 2.35547 22.7007 9.52614 22.7007 18.3716C22.7007 27.2171 25.9687 34.3877 30 34.3877Z" fill="white"/>
<path d="M23.6762 12.5427C24.9026 12.5427 25.8968 11.5485 25.8968 10.3221C25.8968 9.09575 24.9026 8.10156 23.6762 8.10156C22.4498 8.10156 21.4556 9.09575 21.4556 10.3221C21.4556 11.5485 22.4498 12.5427 23.6762 12.5427Z" fill="white"/>
<path d="M30.0004 25.6443C31.2268 25.6443 32.221 24.6501 32.221 23.4237C32.221 22.1973 31.2268 21.2031 30.0004 21.2031C28.774 21.2031 27.7798 22.1973 27.7798 23.4237C27.7798 24.6501 28.774 25.6443 30.0004 25.6443Z" fill="#E9DECE"/>
<path d="M53.9068 12.7812H48.0428C47.6724 12.7812 47.3719 13.0817 47.3719 13.4521C47.3719 13.8226 47.6724 14.123 48.0428 14.123H53.9068C55.6356 14.123 57.042 15.5296 57.042 17.2584V42.6582H2.95763V17.2584C2.95763 15.5295 4.36435 14.123 6.0931 14.123H11.9568C12.3275 14.123 12.6277 13.8226 12.6277 13.4521C12.6277 13.0817 12.3273 12.7812 11.9568 12.7812H6.0931C3.62431 12.7812 1.61572 14.7896 1.61572 17.2584V47.8876C1.61572 50.3643 3.63205 52.3656 6.09392 52.3656H23.3068C24.3815 54.4237 24.3815 56.8774 23.3068 58.9353H20.0413C19.6709 58.9353 19.3704 59.2359 19.3704 59.6063C19.3704 59.9767 19.6709 60.2771 20.0413 60.2771H39.9582C40.3286 60.2771 40.6291 59.9767 40.6291 59.6063C40.6291 59.2359 40.3286 58.9353 39.9582 58.9353H36.6927C35.618 56.8773 35.618 54.4235 36.6927 52.3656C54.5618 52.2435 54.1712 52.6386 55.6476 52.0127C57.254 51.3319 58.3838 49.7392 58.3838 47.8876V17.2584C58.3838 14.7897 56.3754 12.7812 53.9068 12.7812ZM2.95892 44H57.0407V47.8887C57.0407 49.185 56.2497 50.3 55.1252 50.7766C54.0207 51.2443 56.4031 50.9323 6.0931 51.0233C4.36482 51.0233 2.95892 49.6167 2.95892 47.8887V44ZM35.2073 58.9352H24.7925C25.6791 56.8364 25.6791 54.4641 24.7925 52.3654H35.2073C34.3205 54.4642 34.3205 56.8365 35.2073 58.9352Z" fill="#585D69"/>
<path d="M27.7334 48.1835H32.2664C32.6369 48.1835 32.9373 47.8831 32.9373 47.5127C32.9373 47.1422 32.6369 46.8418 32.2664 46.8418H27.7334C27.3629 46.8418 27.0625 47.1422 27.0625 47.5127C27.0625 47.8831 27.3629 48.1835 27.7334 48.1835Z" fill="#585D69"/>
<path d="M15.9168 27.3057C15.9391 27.3513 15.9665 27.3933 15.9981 27.4324C22.5954 37.5922 37.3908 37.6042 43.9981 27.4382C44.0343 27.3944 44.0657 27.347 44.09 27.2949C47.5491 21.8522 47.556 14.9163 44.1011 9.46524C44.0743 9.40313 44.0364 9.34746 43.9929 9.29672C37.3763 -0.871172 22.5733 -0.832267 15.9911 9.32157C15.9673 9.35215 15.9467 9.38485 15.9284 9.4193C12.4441 14.8768 12.4382 21.8418 15.9168 27.3057ZM20.7889 10.4018C20.8198 11.5274 21.4961 12.4923 22.4612 12.9418C22.2133 14.4679 22.0736 16.0622 22.0435 17.7006H14.6717C14.787 15.037 15.5823 12.547 16.8912 10.4018H20.7889ZM45.3282 17.7006H37.9595C37.9118 15.1239 37.5931 12.6304 37.0226 10.4018H43.1085C44.4175 12.547 45.2128 15.037 45.3282 17.7006ZM43.1079 26.3422H37.0334C37.586 24.1689 37.9148 21.6938 37.9626 19.0425H45.3282C45.2128 21.7065 44.4173 24.1969 43.1079 26.3422ZM14.6717 19.0425H22.037C22.0848 21.6939 22.4134 24.1689 22.9662 26.3422H16.8918C15.5826 24.1969 14.787 21.7065 14.6717 19.0425ZM23.7773 13.2079C25.2979 13.155 26.5216 11.9252 26.5634 10.4018H29.3288V17.7006H23.3852C23.4149 16.1529 23.5462 14.648 23.7773 13.2079ZM23.3787 19.0425H29.3289V20.614C28.058 20.9181 27.1091 22.0609 27.1091 23.4236C27.1091 24.7863 28.058 25.9291 29.3289 26.2332V26.3423H24.3695C23.788 24.1839 23.4306 21.6879 23.3787 19.0425ZM30.0006 24.9733C29.1462 24.9733 28.4509 24.2779 28.4509 23.4236C28.4509 22.5701 29.1449 21.8756 29.998 21.8741L29.9998 21.8743L30.0024 21.874C30.856 21.875 31.5504 22.5699 31.5504 23.4236C31.5504 24.2779 30.855 24.9733 30.0006 24.9733ZM29.3289 27.684V33.636C27.5012 33.1878 25.8679 30.9331 24.7753 27.684H29.3289ZM30.6707 33.636V27.684H35.2243C34.1317 30.9331 32.4984 33.1878 30.6707 33.636ZM30.6707 26.3422V26.2335C31.9424 25.93 32.8922 24.7868 32.8922 23.4235C32.8922 22.0601 31.9424 20.917 30.6707 20.6134V19.0424H36.6209C36.5689 21.6878 36.2116 24.1838 35.6301 26.342L30.6707 26.3422ZM36.6177 17.7006H30.6707V10.4018H35.6326C36.2307 12.6067 36.5679 15.1052 36.6177 17.7006ZM30.6707 9.06V3.11801C32.4325 3.56438 34.1065 5.73551 35.2298 9.06H30.6707ZM29.3289 3.11344V9.06H26.2737C26.0357 8.57215 25.6656 8.16153 25.2086 7.87418C26.3175 5.18637 27.7834 3.49875 29.3289 3.11344ZM25.2257 10.3219C25.2257 11.1763 24.5308 11.8713 23.6764 11.8713C22.8219 11.8713 22.1267 11.1763 22.1267 10.3219C22.1267 9.46746 22.8221 8.77219 23.6764 8.77219C24.5307 8.77219 25.2257 9.46758 25.2257 10.3219ZM17.8148 27.684H23.3482C24.0992 30.06 25.1357 31.9884 26.3629 33.2778C22.9101 32.4352 19.9127 30.4226 17.8148 27.684ZM33.6368 33.2778C34.864 31.9885 35.9004 30.0602 36.6515 27.684H42.1851C40.0871 30.4226 37.0895 32.4352 33.6368 33.2778ZM42.1857 9.06H36.6377C35.8722 6.63563 34.833 4.72899 33.6246 3.46254C37.0828 4.30348 40.0853 6.3177 42.1857 9.06ZM26.3676 3.46418C25.4438 4.43356 24.6176 5.77969 23.9377 7.44352C22.7024 7.33243 21.5914 8.00918 21.0788 9.06H17.8141C19.9129 6.31969 22.9125 4.30629 26.3676 3.46418Z" fill="#585D69"/>
</g>
</svg>
