<svg width="14" height="16" viewBox="0 0 14 16" fill="none" xmlns="http://www.w3.org/2000/svg">
<path d="M9.21667 15.1465H3.88334C2.67445 15.1465 1.73222 14.8176 1.05667 14.1598C0.381113 13.502 0.043335 12.5509 0.043335 11.3065V4.63982C0.043335 3.43093 0.381113 2.49759 1.05667 1.83982C1.73222 1.18204 2.67445 0.85315 3.88334 0.85315H9.21667C10.4256 0.85315 11.3678 1.18204 12.0433 1.83982C12.7189 2.49759 13.0567 3.43093 13.0567 4.63982V11.3065C13.0567 12.5509 12.7189 13.502 12.0433 14.1598C11.3678 14.8176 10.4256 15.1465 9.21667 15.1465ZM3.88334 1.81315C1.99889 1.81315 1.05667 2.75537 1.05667 4.63982V11.3065C1.05667 13.2265 1.99889 14.1865 3.88334 14.1865H9.21667C11.1011 14.1865 12.0433 13.2443 12.0433 11.3598V4.63982C12.0433 2.75537 11.1011 1.81315 9.21667 1.81315H3.88334ZM4.57667 7.41315C4.43445 7.41315 4.30111 7.38648 4.17667 7.33315C4.05222 7.27982 3.94556 7.18204 3.85667 7.03982C3.76778 6.8976 3.72334 6.7376 3.72334 6.55982V1.33315C3.72334 1.19093 3.76778 1.07537 3.85667 0.986484C3.94556 0.897595 4.06111 0.85315 4.20334 0.85315H8.89667C9.03889 0.85315 9.15445 0.897595 9.24333 0.986484C9.33222 1.07537 9.37667 1.19093 9.37667 1.33315V6.55982C9.37667 6.7376 9.33222 6.8976 9.24333 7.03982C9.15445 7.18204 9.03889 7.27982 8.89667 7.33315C8.75445 7.38648 8.59445 7.40426 8.41667 7.38648C8.23889 7.36871 8.09667 7.30648 7.99 7.19982L6.55 5.86648L5.11 7.19982C4.96778 7.34204 4.79 7.41315 4.57667 7.41315ZM6.55 4.79982C6.76334 4.79982 6.95889 4.87093 7.13667 5.01315L8.36334 6.18648V1.81315H4.73667V6.18648L5.96334 5.01315C6.14111 4.87093 6.33667 4.79982 6.55 4.79982ZM10.23 9.81315H7.40334C7.26111 9.81315 7.13667 9.76871 7.03 9.67982C6.92334 9.59093 6.87 9.47537 6.87 9.33315C6.87 9.19093 6.92334 9.07537 7.03 8.98648C7.13667 8.8976 7.26111 8.85315 7.40334 8.85315H10.23C10.3722 8.85315 10.4878 8.8976 10.5767 8.98648C10.6656 9.07537 10.71 9.19093 10.71 9.33315C10.71 9.47537 10.6656 9.59093 10.5767 9.67982C10.4878 9.76871 10.3722 9.81315 10.23 9.81315ZM10.23 12.4798H4.57667C4.43445 12.4798 4.31 12.4354 4.20334 12.3465C4.09667 12.2576 4.04333 12.142 4.04333 11.9998C4.04333 11.8576 4.09667 11.742 4.20334 11.6532C4.31 11.5643 4.43445 11.5198 4.57667 11.5198H10.23C10.3722 11.5198 10.4878 11.5643 10.5767 11.6532C10.6656 11.742 10.71 11.8576 10.71 11.9998C10.71 12.142 10.6656 12.2576 10.5767 12.3465C10.4878 12.4354 10.3722 12.4798 10.23 12.4798Z" fill="#131836"/>
</svg>
