<svg width="14" height="15" viewBox="0 0 14 15" fill="none" xmlns="http://www.w3.org/2000/svg">
<g clip-path="url(#clip0_6_2747)">
<path d="M0.962158 13.6458H2.34302C2.60734 13.6458 2.83293 13.5523 3.01978 13.3655C3.20662 13.1786 3.30005 12.953 3.30005 12.6887V6.37231C3.30005 6.10799 3.20662 5.88013 3.01978 5.68872C2.83293 5.49731 2.60734 5.40161 2.34302 5.40161H0.962158C0.697835 5.40161 0.472249 5.49731 0.2854 5.68872C0.0985514 5.88013 0.00512695 6.10799 0.00512695 6.37231V12.6887C0.00512695 12.953 0.0985514 13.1786 0.2854 13.3655C0.472249 13.5523 0.697835 13.6458 0.962158 13.6458ZM7.0188 1.4231C6.74536 1.4231 6.54028 1.52791 6.40356 1.73755C6.26685 1.94718 6.19849 2.3938 6.19849 3.07739C6.19849 3.72453 5.95467 4.30103 5.46704 4.80688C4.97941 5.31274 4.53052 5.70239 4.12036 5.97583V12.7708C4.33911 12.871 4.61711 12.9804 4.95435 13.0989C5.28247 13.2174 5.66984 13.3267 6.11646 13.427C6.56307 13.5273 7.06437 13.6139 7.62036 13.6868C8.18547 13.7506 8.80981 13.7825 9.49341 13.7825H10.3684C10.9062 13.7825 11.3778 13.6093 11.7834 13.2629C12.189 12.9166 12.4374 12.4836 12.5286 11.9641L13.1438 8.39575C13.2623 7.72127 13.1028 7.12427 12.6653 6.60474C12.2278 6.08521 11.6672 5.82544 10.9836 5.82544H8.39966C8.39966 5.82544 8.46802 5.62948 8.60474 5.23755C8.74146 4.84562 8.80981 4.30786 8.80981 3.62427C8.80981 2.80396 8.57967 2.23201 8.11938 1.90845C7.6591 1.58488 7.29224 1.4231 7.0188 1.4231Z" fill="#585D69"/>
</g>
<defs>
<clipPath id="clip0_6_2747">
<rect width="13.19" height="14" fill="white" transform="matrix(1 0 0 -1 0 14.22)"/>
</clipPath>
</defs>
</svg>
