<svg width="12" height="14" viewBox="0 0 12 14" fill="none" xmlns="http://www.w3.org/2000/svg">
<path d="M6 1.19727C5.11111 1.19727 4.30222 1.41949 3.57334 1.86393C2.84445 2.30838 2.25778 2.90393 1.81334 3.6506C1.36889 4.39727 1.14667 5.23282 1.14667 6.15727C1.14667 6.83282 1.28 7.53504 1.54667 8.26393C1.81334 8.99282 2.17778 9.65949 2.64 10.2639C3.10222 10.8684 3.62667 11.3395 4.21334 11.6773C4.8 12.015 5.39556 12.1839 6 12.1839C6.60445 12.1839 7.2 12.015 7.78667 11.6773C8.37333 11.3395 8.89778 10.8684 9.36 10.2639C9.82222 9.65949 10.1867 8.99282 10.4533 8.26393C10.72 7.53504 10.8533 6.83282 10.8533 6.15727C10.8533 5.23282 10.6311 4.39727 10.1867 3.6506C9.74222 2.90393 9.15556 2.30838 8.42667 1.86393C7.69778 1.41949 6.88889 1.19727 6 1.19727ZM0.186668 6.15727C0.186668 5.05504 0.444446 4.0506 0.960002 3.14393C1.47556 2.23727 2.17778 1.51727 3.06667 0.983932C3.95556 0.450599 4.93334 0.183932 6 0.183932C7.06667 0.183932 8.04445 0.450599 8.93334 0.983932C9.82222 1.51727 10.5244 2.23727 11.04 3.14393C11.5556 4.0506 11.8133 5.05504 11.8133 6.15727C11.8133 6.93949 11.6711 7.74838 11.3867 8.58393C11.1022 9.41949 10.6933 10.1839 10.16 10.8773C9.62667 11.5706 9.02222 12.1128 8.34667 12.5039C7.6 12.9662 6.81778 13.1973 6 13.1973C5.18222 13.1973 4.4 12.9662 3.65334 12.5039C2.97778 12.1128 2.37334 11.5706 1.84 10.8773C1.30667 10.1839 0.89778 9.41949 0.613335 8.58393C0.328891 7.74838 0.186668 6.93949 0.186668 6.15727ZM3.81334 5.67727C3.81334 5.07282 4.02667 4.56615 4.45334 4.15727C4.88 3.74838 5.39556 3.54393 6 3.54393C6.60445 3.54393 7.12 3.74838 7.54667 4.15727C7.97334 4.56615 8.18667 5.07282 8.18667 5.67727C8.18667 6.28171 7.97334 6.79727 7.54667 7.22393C7.12 7.6506 6.60445 7.86393 6 7.86393C5.39556 7.86393 4.88 7.6506 4.45334 7.22393C4.02667 6.79727 3.81334 6.28171 3.81334 5.67727ZM6 4.50393C5.68 4.50393 5.40445 4.61949 5.17334 4.8506C4.94222 5.08171 4.82667 5.35727 4.82667 5.67727C4.82667 5.99727 4.94222 6.27282 5.17334 6.50393C5.40445 6.73504 5.68 6.8506 6 6.8506C6.32 6.8506 6.59556 6.73504 6.82667 6.50393C7.05778 6.27282 7.17334 5.99727 7.17334 5.67727C7.17334 5.35727 7.05778 5.08171 6.82667 4.8506C6.59556 4.61949 6.32 4.50393 6 4.50393Z" fill="#131836"/>
</svg>
