<svg width="12" height="14" viewBox="0 0 12 14" fill="none" xmlns="http://www.w3.org/2000/svg">
<path d="M6.0001 7.13996C5.56454 7.13996 5.19121 7.29552 4.8801 7.60663C4.56898 7.91774 4.41343 8.29885 4.41343 8.74996C4.41343 9.20107 4.56898 9.58218 4.8801 9.8933C5.19121 10.2044 5.56454 10.36 6.0001 10.36C6.43565 10.36 6.80898 10.2044 7.1201 9.8933C7.43121 9.58218 7.58676 9.20107 7.58676 8.74996C7.58676 8.29885 7.43121 7.91774 7.1201 7.60663C6.80898 7.29552 6.43565 7.13996 6.0001 7.13996ZM5.25343 8.72663C5.25343 8.53996 5.33121 8.37663 5.48676 8.23663C5.64232 8.09663 5.81343 8.02663 6.0001 8.02663C6.18676 8.02663 6.35787 8.09663 6.51343 8.23663C6.66898 8.37663 6.74676 8.54774 6.74676 8.74996C6.74676 8.95218 6.66898 9.1233 6.51343 9.2633C6.35787 9.4033 6.18676 9.4733 6.0001 9.4733C5.81343 9.4733 5.64232 9.4033 5.48676 9.2633C5.33121 9.1233 5.25343 8.94441 5.25343 8.72663ZM6.0001 0.746629C5.37787 0.746629 4.8101 0.894407 4.29676 1.18996C3.78343 1.48552 3.37898 1.88996 3.08343 2.4033C2.78787 2.91663 2.6401 3.46885 2.6401 4.05996V4.38663C2.11121 4.54218 1.6601 4.81441 1.28676 5.2033C0.913429 5.59218 0.648985 6.03552 0.493429 6.5333C0.400096 6.78218 0.353429 7.07774 0.353429 7.41996C0.322318 7.63774 0.306763 8.04218 0.306763 8.6333V8.86663C0.306763 9.45774 0.322318 9.86218 0.353429 10.08C0.353429 10.4222 0.400096 10.7177 0.493429 10.9666C0.648985 11.4644 0.913429 11.9077 1.28676 12.2966C1.6601 12.6855 2.11121 12.9577 2.6401 13.1133C2.85787 13.1755 3.13787 13.2222 3.4801 13.2533C3.72898 13.2533 4.14898 13.2533 4.7401 13.2533H7.2601C7.85121 13.2533 8.27121 13.2533 8.5201 13.2533C8.86232 13.2222 9.14232 13.1755 9.3601 13.1133C9.88898 12.9577 10.3401 12.6855 10.7134 12.2966C11.0868 11.9077 11.3512 11.4644 11.5068 10.9666C11.6001 10.7177 11.6468 10.4222 11.6468 10.08C11.6779 9.86218 11.6934 9.45774 11.6934 8.86663V8.6333C11.6934 8.04218 11.6779 7.63774 11.6468 7.41996C11.6468 7.07774 11.6001 6.78218 11.5068 6.5333C11.3512 6.03552 11.0868 5.59218 10.7134 5.2033C10.3401 4.81441 9.88898 4.54218 9.3601 4.38663V4.05996C9.3601 3.46885 9.21232 2.91663 8.91676 2.4033C8.62121 1.88996 8.21676 1.48552 7.70343 1.18996C7.1901 0.894407 6.62232 0.746629 6.0001 0.746629ZM4.78676 4.24663C4.16454 4.24663 3.74454 4.24663 3.52676 4.24663V4.05996C3.52676 3.37552 3.76787 2.79218 4.2501 2.30996C4.73232 1.82774 5.31565 1.58663 6.0001 1.58663C6.68454 1.58663 7.26787 1.82774 7.7501 2.30996C8.23232 2.79218 8.47343 3.37552 8.47343 4.05996V4.24663C8.25565 4.24663 7.83565 4.24663 7.21343 4.24663H4.78676ZM3.15343 5.17996C3.40232 5.11774 3.96232 5.08663 4.83343 5.08663H7.16676C8.03787 5.08663 8.59787 5.11774 8.84676 5.17996L9.0801 5.22663C9.48454 5.35107 9.82676 5.5533 10.1068 5.8333C10.3868 6.1133 10.589 6.43996 10.7134 6.8133C10.7445 6.96885 10.7757 7.20218 10.8068 7.5133V8.72663V9.98663C10.7757 10.2977 10.7445 10.5311 10.7134 10.6866C10.589 11.06 10.3868 11.3866 10.1068 11.6666C9.82676 11.9466 9.48454 12.1489 9.0801 12.2733C8.92454 12.3355 8.70676 12.3666 8.42676 12.3666L7.16676 12.4133L3.57343 12.3666C3.29343 12.3666 3.07565 12.3355 2.9201 12.2733C2.51565 12.1489 2.17343 11.9466 1.89343 11.6666C1.61343 11.3866 1.41121 11.06 1.28676 10.6866C1.25565 10.5311 1.22454 10.2977 1.19343 9.98663V8.7733V7.5133C1.22454 7.20218 1.25565 6.96885 1.28676 6.8133C1.41121 6.43996 1.61343 6.1133 1.89343 5.8333C2.17343 5.5533 2.51565 5.35107 2.9201 5.22663L3.15343 5.17996Z" fill="#131836"/>
</svg>
