<svg width="17" height="17" viewBox="0 0 17 17" fill="none" xmlns="http://www.w3.org/2000/svg">
<path d="M8.13333 1.2666C7.33333 1.2666 6.53333 1.35549 5.73333 1.53327C4.71111 1.79993 3.82222 2.31105 3.06667 3.0666C2.31111 3.82216 1.8 4.71105 1.53333 5.73327C1.17778 7.33327 1.17778 8.93327 1.53333 10.5333C1.8 11.5555 2.31111 12.4444 3.06667 13.1999C3.82222 13.9555 4.71111 14.4666 5.73333 14.7333C7.33333 15.0888 8.93333 15.0888 10.5333 14.7333C11.5556 14.4666 12.4444 13.9555 13.2 13.1999C13.9556 12.4444 14.4667 11.5555 14.7333 10.5333C14.9111 9.73327 15 8.93327 15 8.13327C15 7.95549 15.0667 7.81105 15.2 7.69993C15.3333 7.58882 15.4778 7.53327 15.6333 7.53327C15.7889 7.53327 15.9333 7.58882 16.0667 7.69993C16.2 7.81105 16.2667 7.95549 16.2667 8.13327C16.2667 9.02216 16.1556 9.91105 15.9333 10.7999C15.6222 12.0888 15.0111 13.1888 14.1 14.0999C13.1889 15.011 12.0889 15.6222 10.8 15.9333C9.02222 16.3777 7.24444 16.3777 5.46667 15.9333C4.17778 15.6222 3.07778 15.011 2.16667 14.0999C1.25556 13.1888 0.644444 12.0888 0.333333 10.7999C-0.111111 9.02216 -0.111111 7.24438 0.333333 5.4666C0.644444 4.17771 1.25556 3.07771 2.16667 2.1666C3.07778 1.25549 4.17778 0.644379 5.46667 0.333267C6.35556 0.111046 7.24444 -6.67572e-05 8.13333 -6.67572e-05C8.31111 -6.67572e-05 8.45556 0.0666008 8.56667 0.199934C8.67778 0.333267 8.73333 0.477712 8.73333 0.633267C8.73333 0.788823 8.67778 0.933268 8.56667 1.0666C8.45556 1.19993 8.31111 1.2666 8.13333 1.2666ZM11.6667 0.599934C11.6667 0.4666 11.7333 0.333267 11.8667 0.199934C12 0.0666008 12.1556 -6.67572e-05 12.3333 -6.67572e-05H15.6667C15.8 -6.67572e-05 15.9333 0.0666008 16.0667 0.199934C16.2 0.333267 16.2667 0.4666 16.2667 0.599934V4.53327C16.2667 4.71105 16.2 4.85549 16.0667 4.9666C15.9333 5.07771 15.7889 5.13327 15.6333 5.13327C15.4778 5.13327 15.3333 5.07771 15.2 4.9666C15.0667 4.85549 15 4.71105 15 4.53327V2.33327L11.1333 6.8666C11 6.99993 10.8444 7.07771 10.6667 7.09993C10.4889 7.12216 10.3333 7.07771 10.2 6.9666C10.0667 6.85549 10 6.71105 10 6.53327C10 6.35549 10.0444 6.19993 10.1333 6.0666L14.2667 1.2666H12.3333C12.1556 1.2666 12 1.19993 11.8667 1.0666C11.7333 0.933268 11.6667 0.777712 11.6667 0.599934Z" fill="#656262"/>
</svg>
