<svg width="16" height="14" viewBox="0 0 16 14" fill="none" xmlns="http://www.w3.org/2000/svg">
<path d="M10.0267 0.183932C9.74222 0.183932 9.29778 0.183932 8.69333 0.183932H7.30667C5.84889 0.183932 4.87111 0.219487 4.37333 0.290599C3.55555 0.36171 2.89778 0.575043 2.4 0.930598C2.08 1.17949 1.79555 1.46393 1.54667 1.78393C1.44 1.92615 1.35111 2.06838 1.28 2.2106C1.06667 2.67282 0.942221 3.27727 0.906666 4.02393C0.87111 4.48615 0.853333 5.37504 0.853333 6.6906V6.74393C0.853333 8.20171 0.87111 9.17949 0.906666 9.67727C1.01333 10.495 1.22667 11.135 1.54667 11.5973C1.79555 11.9173 2.08 12.2017 2.4 12.4506C2.89778 12.8062 3.55555 13.0195 4.37333 13.0906C4.87111 13.1617 5.84889 13.1973 7.30667 13.1973H8.69333C10.1511 13.1973 11.1289 13.1617 11.6267 13.0906C12.4444 13.0195 13.1022 12.8062 13.6 12.4506C13.92 12.2017 14.2044 11.9173 14.4533 11.5973C14.7733 11.135 14.9867 10.495 15.0933 9.67727C15.1289 9.17949 15.1467 8.20171 15.1467 6.74393V5.35727C15.1467 5.21504 15.1022 5.0906 15.0133 4.98393C14.9244 4.87726 14.8089 4.82393 14.6667 4.82393C14.5244 4.82393 14.4 4.87726 14.2933 4.98393C14.1867 5.0906 14.1511 5.21504 14.1867 5.35727V6.6906C14.1867 8.14838 14.1511 9.10838 14.08 9.5706C14.0089 10.2106 13.8489 10.6906 13.6 11.0106C13.4578 11.2595 13.2622 11.4728 13.0133 11.6506C12.6578 11.8995 12.16 12.0595 11.52 12.1306C11.0578 12.1662 10.1156 12.1839 8.69333 12.1839H7.36C5.90222 12.1839 4.94222 12.1662 4.48 12.1306C3.84 12.0595 3.34222 11.8995 2.98667 11.6506C2.73778 11.4728 2.54222 11.2595 2.4 11.0106C2.15111 10.6906 1.99111 10.2106 1.92 9.5706C1.84889 9.10838 1.81333 8.14838 1.81333 6.6906C1.81333 5.4106 1.83111 4.55727 1.86667 4.1306C1.90222 3.84615 1.93778 3.59727 1.97333 3.38393L2.93333 4.34393C4.24889 5.65949 5.15555 6.49504 5.65333 6.8506C6.04444 7.1706 6.43555 7.4106 6.82667 7.5706C7.21778 7.7306 7.60889 7.8106 8 7.8106C8.60444 7.8106 9.20889 7.61504 9.81333 7.22393C10.3111 6.93949 10.9333 6.42393 11.68 5.67727C11.7867 5.60615 11.84 5.49949 11.84 5.35727C11.84 5.21504 11.7956 5.0906 11.7067 4.98393C11.6178 4.87726 11.5022 4.82393 11.36 4.82393C11.2178 4.82393 11.0933 4.87726 10.9867 4.98393C10.2756 5.65949 9.70667 6.1306 9.28 6.39727C8.85333 6.66393 8.42667 6.79727 8 6.79727C7.46667 6.79727 6.88 6.56615 6.24 6.10393C5.77778 5.71282 4.90667 4.87726 3.62667 3.59727L2.4 2.3706C2.54222 2.12171 2.73778 1.90838 2.98667 1.7306C3.34222 1.48171 3.84 1.32171 4.48 1.2506C4.94222 1.21504 5.90222 1.19727 7.36 1.19727H9.97333C10.1156 1.19727 10.24 1.15282 10.3467 1.06393C10.4533 0.975043 10.5067 0.859488 10.5067 0.717265C10.5067 0.575043 10.4533 0.450599 10.3467 0.343932C10.24 0.237266 10.1333 0.183932 10.0267 0.183932ZM13.3333 0.183932C12.8356 0.183932 12.4089 0.36171 12.0533 0.717265C11.6978 1.07282 11.52 1.50838 11.52 2.02393C11.52 2.53949 11.6978 2.97504 12.0533 3.3306C12.4089 3.68615 12.8356 3.86393 13.3333 3.86393C13.8311 3.86393 14.2578 3.68615 14.6133 3.3306C14.9689 2.97504 15.1467 2.53949 15.1467 2.02393C15.1467 1.50838 14.9689 1.07282 14.6133 0.717265C14.2578 0.36171 13.8311 0.183932 13.3333 0.183932ZM12.48 1.99727C12.48 1.78393 12.5689 1.59727 12.7467 1.43727C12.9244 1.27727 13.12 1.19727 13.3333 1.19727C13.5467 1.19727 13.7422 1.27727 13.92 1.43727C14.0978 1.59727 14.1867 1.79282 14.1867 2.02393C14.1867 2.25504 14.0978 2.4506 13.92 2.6106C13.7422 2.7706 13.5467 2.8506 13.3333 2.8506C13.12 2.8506 12.9244 2.7706 12.7467 2.6106C12.5689 2.4506 12.48 2.24615 12.48 1.99727Z" fill="#131836"/>
</svg>
