<svg width="12" height="12" viewBox="0 0 12 12" fill="none" xmlns="http://www.w3.org/2000/svg">
<path d="M10.7559 0.695312H2.66211C2.59831 0.695312 2.53906 0.706706 2.48438 0.729492C2.42969 0.752278 2.38411 0.781901 2.34766 0.818359C2.30208 0.863933 2.27018 0.911784 2.25195 0.961914C2.23372 1.01204 2.22461 1.06901 2.22461 1.13281C2.22461 1.1875 2.23372 1.24219 2.25195 1.29688C2.27018 1.35156 2.30208 1.39714 2.34766 1.43359C2.38411 1.47917 2.42969 1.51335 2.48438 1.53613C2.53906 1.55892 2.59831 1.57031 2.66211 1.57031H9.89453L0.912109 10.5391C0.89388 10.5664 0.875651 10.5915 0.857422 10.6143C0.839193 10.637 0.825521 10.6621 0.816406 10.6895C0.807292 10.7168 0.798177 10.7441 0.789062 10.7715C0.779948 10.7988 0.775391 10.8262 0.775391 10.8535C0.775391 10.89 0.777669 10.9219 0.782227 10.9492C0.786784 10.9766 0.79362 11.0039 0.802734 11.0312C0.820964 11.0586 0.836914 11.0837 0.850586 11.1064C0.864258 11.1292 0.880208 11.1543 0.898438 11.1816C0.925781 11.1999 0.950846 11.2158 0.973633 11.2295C0.996419 11.2432 1.02148 11.2591 1.04883 11.2773C1.07617 11.2865 1.10352 11.2933 1.13086 11.2979C1.1582 11.3024 1.1901 11.3047 1.22656 11.3047C1.25391 11.3047 1.28125 11.3001 1.30859 11.291C1.33594 11.2819 1.36328 11.2728 1.39062 11.2637C1.41797 11.2546 1.44303 11.2409 1.46582 11.2227C1.48861 11.2044 1.51367 11.1862 1.54102 11.168L10.5098 2.18555V9.41797C10.5098 9.48177 10.5212 9.54102 10.5439 9.5957C10.5667 9.65039 10.6009 9.69596 10.6465 9.73242C10.6829 9.77799 10.7285 9.8099 10.7832 9.82812C10.8379 9.84635 10.8926 9.85547 10.9473 9.85547C11.0111 9.85547 11.068 9.84635 11.1182 9.82812C11.1683 9.8099 11.2161 9.77799 11.2617 9.73242C11.2982 9.69596 11.3278 9.65039 11.3506 9.5957C11.3734 9.54102 11.3848 9.48177 11.3848 9.41797V1.32422C11.3848 1.24219 11.3688 1.16243 11.3369 1.08496C11.305 1.00749 11.2617 0.936849 11.207 0.873047C11.1432 0.818359 11.0726 0.775065 10.9951 0.743164C10.9176 0.711263 10.8379 0.695312 10.7559 0.695312Z" fill="#131836"/>
</svg>
