<svg width="15" height="15" viewBox="0 0 15 15" fill="none" xmlns="http://www.w3.org/2000/svg">
<path d="M11.8158 1.91528H3.72205C3.65824 1.91528 3.599 1.92668 3.54431 1.94946C3.48962 1.97225 3.44405 2.00187 3.40759 2.03833C3.36202 2.0839 3.33012 2.13175 3.31189 2.18188C3.29366 2.23201 3.28455 2.28898 3.28455 2.35278C3.28455 2.40747 3.29366 2.46216 3.31189 2.51685C3.33012 2.57153 3.36202 2.61711 3.40759 2.65356C3.44405 2.69914 3.48962 2.73332 3.54431 2.7561C3.599 2.77889 3.65824 2.79028 3.72205 2.79028H10.9545L1.97205 11.759C1.95382 11.7864 1.93559 11.8114 1.91736 11.8342C1.89913 11.857 1.88546 11.8821 1.87634 11.9094C1.86723 11.9368 1.85811 11.9641 1.849 11.9915C1.83988 12.0188 1.83533 12.0461 1.83533 12.0735C1.83533 12.1099 1.83761 12.1418 1.84216 12.1692C1.84672 12.1965 1.85356 12.2239 1.86267 12.2512C1.8809 12.2786 1.89685 12.3036 1.91052 12.3264C1.92419 12.3492 1.94014 12.3743 1.95837 12.4016C1.98572 12.4198 2.01078 12.4358 2.03357 12.4495C2.05636 12.4631 2.08142 12.4791 2.10876 12.4973C2.13611 12.5064 2.16345 12.5133 2.1908 12.5178C2.21814 12.5224 2.25004 12.5247 2.2865 12.5247C2.31384 12.5247 2.34119 12.5201 2.36853 12.511C2.39587 12.5019 2.42322 12.4928 2.45056 12.4836C2.47791 12.4745 2.50297 12.4609 2.52576 12.4426C2.54854 12.4244 2.57361 12.4062 2.60095 12.3879L11.5697 3.40552V10.6379C11.5697 10.7017 11.5811 10.761 11.6039 10.8157C11.6267 10.8704 11.6608 10.9159 11.7064 10.9524C11.7429 10.998 11.7885 11.0299 11.8431 11.0481C11.8978 11.0663 11.9525 11.0754 12.0072 11.0754C12.071 11.0754 12.128 11.0663 12.1781 11.0481C12.2282 11.0299 12.2761 10.998 12.3217 10.9524C12.3581 10.9159 12.3877 10.8704 12.4105 10.8157C12.4333 10.761 12.4447 10.7017 12.4447 10.6379V2.54419C12.4447 2.46216 12.4288 2.38241 12.3969 2.30493C12.3649 2.22746 12.3217 2.15682 12.267 2.09302C12.2032 2.03833 12.1325 1.99504 12.0551 1.96313C11.9776 1.93123 11.8978 1.91528 11.8158 1.91528Z" fill="white"/>
</svg>
