<svg width="41" height="40" viewBox="0 0 41 40" fill="none" xmlns="http://www.w3.org/2000/svg">
<path d="M28.8576 7.19999C28.1464 6.93332 27.2131 6.79999 26.0576 6.79999C25.1687 6.7111 23.4798 6.66665 20.9909 6.66665C18.3242 6.66665 16.5464 6.7111 15.6576 6.79999C14.4131 6.88888 13.4798 7.06665 12.8576 7.33332C11.7909 7.77777 10.8798 8.37777 10.1242 9.13332C9.36866 9.88888 8.76866 10.8 8.32422 11.8667C8.05755 12.4889 7.87977 13.4222 7.79089 14.6667C7.702 15.5555 7.65755 17.3333 7.65755 20C7.65755 22.6667 7.702 24.4444 7.79089 25.3333C7.87977 26.5778 8.05755 27.5111 8.32422 28.1333C8.76866 29.2 9.36866 30.1111 10.1242 30.8667C10.8798 31.6222 11.7909 32.2222 12.8576 32.6667C13.4798 32.9333 14.4131 33.1111 15.6576 33.2C16.5464 33.2889 18.3242 33.3333 20.9909 33.3333C23.6576 33.3333 25.4353 33.2889 26.3242 33.2C27.5687 33.1111 28.502 32.9333 29.1242 32.6667C30.1909 32.2222 31.102 31.6222 31.8576 30.8667C32.6131 30.1111 33.2131 29.2 33.6576 28.1333C33.9242 27.5111 34.102 26.5778 34.1909 25.3333C34.2798 24.4444 34.3242 22.6667 34.3242 20V16.6667C34.3242 16.2222 34.4798 15.8444 34.7909 15.5333C35.102 15.2222 35.4798 15.0444 35.9242 15C36.3687 14.9555 36.7687 15.1111 37.1242 15.4667C37.4798 15.8222 37.6576 16.2222 37.6576 16.6667V20C37.6576 22.7555 37.6131 24.6222 37.5242 25.6C37.4353 27.2 37.1687 28.4889 36.7242 29.4667C36.1909 30.8889 35.3687 32.1555 34.2576 33.2667C33.1464 34.3778 31.8798 35.2 30.4576 35.7333C29.4798 36.1778 28.1909 36.4444 26.5909 36.5333C25.6131 36.6222 23.7464 36.6667 20.9909 36.6667C18.2353 36.6667 16.3687 36.6222 15.3909 36.5333C13.7909 36.4444 12.502 36.1778 11.5242 35.7333C10.102 35.2 8.83533 34.3778 7.72422 33.2667C6.61311 32.1555 5.79089 30.8889 5.25755 29.4667C4.81311 28.4889 4.54644 27.2 4.45755 25.6C4.36866 24.6222 4.32422 22.7555 4.32422 20C4.32422 17.2444 4.36866 15.3778 4.45755 14.4C4.54644 12.8 4.81311 11.5111 5.25755 10.5333C5.79089 9.1111 6.61311 7.84443 7.72422 6.73332C8.83533 5.62221 10.102 4.79999 11.5242 4.26665C12.502 3.82221 13.7909 3.55554 15.3909 3.46666C16.3687 3.37777 18.2353 3.33332 20.9909 3.33332H21.3909C23.7909 3.33332 25.4353 3.37777 26.3242 3.46666C27.7464 3.55554 28.902 3.73332 29.7909 3.99999C30.2353 4.17776 30.5687 4.46666 30.7909 4.86666C31.0131 5.26665 31.0576 5.68888 30.9242 6.13332C30.7909 6.57777 30.5242 6.88888 30.1242 7.06665C29.7242 7.24443 29.302 7.28888 28.8576 7.19999ZM37.3909 8.26665C37.6576 8.7111 37.7242 9.15554 37.5909 9.59999C37.4576 10.0444 37.2131 10.4 36.8576 10.6667L36.4576 10.8C33.4353 12.5778 30.7464 14.7333 28.3909 17.2667C26.0353 19.8 24.102 22.6222 22.5909 25.7333C22.4131 26.2667 22.0353 26.5778 21.4576 26.6667C20.8798 26.7555 20.3687 26.6222 19.9242 26.2667L13.2576 19.4667C12.902 19.2 12.7242 18.8222 12.7242 18.3333C12.7242 17.8444 12.902 17.4444 13.2576 17.1333C13.6131 16.8222 14.0131 16.6667 14.4576 16.6667C14.902 16.6667 15.302 16.8444 15.6576 17.2L20.7242 22.2667C22.4131 19.3333 24.4353 16.6444 26.7909 14.2C29.1464 11.7555 31.7909 9.68888 34.7242 7.99999L35.1242 7.73332C35.5687 7.46666 36.0131 7.39999 36.4576 7.53332C36.902 7.66665 37.2131 7.9111 37.3909 8.26665Z" fill="#E27447"/>
</svg>
