<svg width="30" height="30" viewBox="0 0 30 30" fill="none" xmlns="http://www.w3.org/2000/svg">
<path d="M8.0998 9.09994C7.16647 9.09994 6.36647 9.43328 5.6998 10.0999C5.03314 10.7666 4.6998 11.5666 4.6998 12.4999V21.8999C4.6998 22.8333 5.03314 23.6333 5.6998 24.2999C6.36647 24.9666 7.16647 25.2999 8.0998 25.2999H21.8998C22.8331 25.2999 23.6331 24.9666 24.2998 24.2999C24.9665 23.6333 25.2998 22.8333 25.2998 21.8999V12.4999C25.2998 11.5666 24.9665 10.7666 24.2998 10.0999C23.6331 9.43328 22.8331 9.09994 21.8998 9.09994H19.8998C19.6331 9.09994 19.4165 8.99994 19.2498 8.79994C19.0831 8.59994 18.9998 8.36661 18.9998 8.09994C18.9998 7.83328 19.0831 7.61661 19.2498 7.44994C19.4165 7.28328 19.6331 7.19994 19.8998 7.19994H21.8998C23.3665 7.19994 24.5998 7.69994 25.5998 8.69994V8.79994C26.6665 9.79994 27.1998 11.0333 27.1998 12.4999V21.8999C27.1998 23.3666 26.6831 24.6166 25.6498 25.6499C24.6165 26.6833 23.3665 27.1999 21.8998 27.1999H8.0998C6.63314 27.1999 5.3998 26.6666 4.3998 25.5999C3.33314 24.5999 2.7998 23.3666 2.7998 21.8999V12.4999C2.7998 11.0333 3.31647 9.78328 4.3498 8.74994C5.38314 7.71661 6.63314 7.19994 8.0998 7.19994H11.1998C11.4665 7.19994 11.6998 7.28328 11.8998 7.44994C12.0998 7.61661 12.1998 7.83328 12.1998 8.09994C12.1998 8.36661 12.0998 8.59994 11.8998 8.79994C11.6998 8.99994 11.4665 9.09994 11.1998 9.09994H8.0998ZM11.9998 3.09994C12.5331 2.83328 13.1165 2.74994 13.7498 2.84994C14.3831 2.94994 15.0331 3.23328 15.6998 3.69994L19.3998 6.19994C19.8665 6.46661 20.2165 6.83328 20.4498 7.29994C20.6831 7.76661 20.8165 8.24994 20.8498 8.74994C20.8831 9.24994 20.7665 9.73328 20.4998 10.1999C20.2331 10.6666 19.8665 11.0333 19.3998 11.2999L15.6998 13.7999C15.0331 14.2666 14.3831 14.5499 13.7498 14.6499C13.1165 14.7499 12.5165 14.6833 11.9498 14.4499C11.3831 14.2166 10.9665 13.8166 10.6998 13.2499C10.4331 12.6833 10.2998 12.0333 10.2998 11.2999V6.29994C10.2998 5.49994 10.4331 4.81661 10.6998 4.24994C10.9665 3.68328 11.3998 3.29994 11.9998 3.09994ZM12.7998 4.79994C12.3998 4.93328 12.1998 5.43328 12.1998 6.29994V11.2999C12.1998 12.0999 12.4165 12.5833 12.8498 12.7499C13.2831 12.9166 13.8998 12.7666 14.6998 12.2999L18.3998 9.69994C18.5998 9.63328 18.7331 9.49994 18.7998 9.29994C18.9331 9.09994 18.9998 8.89994 18.9998 8.69994C18.9998 8.49994 18.9331 8.33328 18.7998 8.19994C18.7331 7.99994 18.5998 7.86661 18.3998 7.79994L14.6998 5.19994C13.8998 4.66661 13.2665 4.53328 12.7998 4.79994ZM2.7998 19.9999C2.7998 19.7333 2.8998 19.5166 3.0998 19.3499C3.2998 19.1833 3.53314 19.0999 3.7998 19.0999H26.2998C26.4998 19.0999 26.6998 19.1833 26.8998 19.3499C27.0998 19.5166 27.1998 19.7333 27.1998 19.9999C27.1998 20.2666 27.0998 20.4833 26.8998 20.6499C26.6998 20.8166 26.4998 20.8999 26.2998 20.8999H3.7998C3.53314 20.8999 3.2998 20.8166 3.0998 20.6499C2.8998 20.4833 2.7998 20.2666 2.7998 19.9999ZM12.9998 19.1999C13.2665 19.3333 13.4165 19.5333 13.4498 19.7999C13.4831 20.0666 13.4331 20.2999 13.2998 20.4999L9.3998 26.6999C9.26647 26.9666 9.06647 27.1333 8.7998 27.1999C8.53314 27.2666 8.2998 27.2166 8.0998 27.0499C7.8998 26.8833 7.76647 26.6833 7.6998 26.4499C7.63314 26.2166 7.66647 25.9999 7.7998 25.7999L11.6998 19.4999C11.8998 19.2999 12.1165 19.1666 12.3498 19.0999C12.5831 19.0333 12.7998 19.0666 12.9998 19.1999ZM21.8998 19.1999C22.0998 19.3333 22.2331 19.5333 22.2998 19.7999C22.3665 20.0666 22.3331 20.2999 22.1998 20.4999L18.2998 26.6999C18.1665 26.9666 17.9665 27.1333 17.6998 27.1999C17.4331 27.2666 17.1831 27.2166 16.9498 27.0499C16.7165 26.8833 16.5831 26.6833 16.5498 26.4499C16.5165 26.2166 16.5665 25.9999 16.6998 25.7999L20.5998 19.4999C20.7331 19.2999 20.9331 19.1666 21.1998 19.0999C21.4665 19.0333 21.6998 19.0666 21.8998 19.1999Z" fill="#131836"/>
</svg>
