<svg width="14" height="14" viewBox="0 0 14 14" fill="none" xmlns="http://www.w3.org/2000/svg">
<path d="M4.38666 0.663829C4.06666 0.343828 3.66666 0.183828 3.18666 0.183828C2.70666 0.183828 2.28889 0.343828 1.93333 0.663829L1.24 1.35716C0.919998 1.67716 0.706664 2.04161 0.599998 2.4505C0.493331 2.85938 0.475553 3.25938 0.546664 3.6505C0.90222 5.21494 1.52444 6.65494 2.41333 7.9705C3.30222 9.28605 4.40444 10.3883 5.72 11.2772C7.03555 12.1661 8.45778 12.7883 9.98666 13.1438C10.4133 13.2149 10.8311 13.1883 11.24 13.0638C11.6489 12.9394 12.0133 12.7349 12.3333 12.4505L13.0267 11.7572C13.3467 11.4016 13.5067 10.9838 13.5067 10.5038C13.5067 10.0238 13.3467 9.60605 13.0267 9.2505L11.9067 8.18383C11.5867 7.86383 11.1867 7.65938 10.7067 7.5705C10.2267 7.48161 9.77333 7.52605 9.34666 7.70383C9.09778 7.8105 8.84 7.83716 8.57333 7.78383C8.30666 7.7305 8.06666 7.61494 7.85333 7.43716L6.25333 5.83716C6.07555 5.62383 5.96 5.38383 5.90666 5.11716C5.85333 4.8505 5.88 4.59272 5.98666 4.34383C6.16444 3.91716 6.20889 3.46383 6.12 2.98383C6.03111 2.50383 5.82666 2.08605 5.50666 1.7305L4.38666 0.663829ZM2.62666 1.4105C2.76889 1.26827 2.94666 1.19716 3.16 1.19716C3.37333 1.19716 3.56889 1.26827 3.74666 1.4105L4.76 2.47716C4.97333 2.65494 5.10666 2.87716 5.16 3.14383C5.21333 3.4105 5.18666 3.66827 5.08 3.91716C4.86666 4.37938 4.80444 4.84161 4.89333 5.30383C4.98222 5.76605 5.20444 6.17494 5.56 6.5305L7.16 8.1305C7.48 8.4505 7.88 8.66383 8.36 8.7705C8.84 8.87716 9.29333 8.82383 9.72 8.6105C9.96889 8.50383 10.2356 8.47716 10.52 8.5305C10.8044 8.58383 11.0356 8.69938 11.2133 8.87716L12.28 9.94383C12.4222 10.1216 12.4933 10.3172 12.4933 10.5305C12.4933 10.7438 12.4222 10.9216 12.28 11.0638L11.5867 11.7572C11.4089 11.9349 11.1956 12.0594 10.9467 12.1305C10.6978 12.2016 10.4489 12.2016 10.2 12.1305C8.77778 11.8105 7.47111 11.2416 6.28 10.4238C5.08889 9.60605 4.07555 8.60161 3.24 7.4105C2.40444 6.21938 1.84444 4.89494 1.56 3.43716C1.48889 3.18827 1.48889 2.94827 1.56 2.71716C1.63111 2.48605 1.75555 2.26383 1.93333 2.0505L2.62666 1.4105ZM8.54667 2.15716C8.58222 2.15716 8.6 2.15716 8.6 2.15716C9.38222 2.19272 10.04 2.47716 10.5733 3.0105C11.1067 3.54383 11.3911 4.20161 11.4267 4.98383V5.46383C11.4267 5.60605 11.4711 5.72161 11.56 5.8105C11.6489 5.89938 11.7644 5.94383 11.9067 5.94383C12.0489 5.94383 12.1644 5.89938 12.2533 5.8105C12.3422 5.72161 12.3867 5.60605 12.3867 5.46383V4.98383C12.3867 4.27272 12.2178 3.63272 11.88 3.06383C11.5422 2.49494 11.0889 2.04161 10.52 1.70383C9.95111 1.36605 9.32889 1.19716 8.65333 1.19716H8.12C7.97778 1.19716 7.86222 1.24161 7.77333 1.33049C7.68444 1.41938 7.64 1.53494 7.64 1.67716C7.64 1.81938 7.68444 1.93494 7.77333 2.02383C7.86222 2.11272 7.97778 2.15716 8.12 2.15716H8.49333H8.54667Z" fill="#131836"/>
</svg>
