<svg width="15" height="14" viewBox="0 0 15 14" fill="none" xmlns="http://www.w3.org/2000/svg">
<path d="M8.59999 4.89995C8.06665 4.56662 7.71665 4.34995 7.54999 4.24995C7.18332 4.08328 6.86665 4.01662 6.59999 4.04995C6.13332 4.08328 5.74999 4.31662 5.44999 4.74995C5.31665 4.94995 5.23332 5.24995 5.19999 5.64995C5.16665 5.88328 5.14999 6.33328 5.14999 6.99995C5.14999 7.66662 5.16665 8.11662 5.19999 8.34995C5.23332 8.74995 5.31665 9.04995 5.44999 9.24995C5.74999 9.68328 6.13332 9.91662 6.59999 9.94995C6.86665 9.98328 7.18332 9.91662 7.54999 9.74995C7.71665 9.64995 8.06665 9.43328 8.59999 9.09995H8.64999C9.18332 8.76662 9.53332 8.53328 9.69999 8.39995C10.0333 8.16662 10.25 7.93328 10.35 7.69995C10.5167 7.23328 10.5167 6.76662 10.35 6.29995C10.25 6.06662 10.0333 5.83328 9.69999 5.59995C9.53332 5.46662 9.18332 5.23328 8.64999 4.89995H8.59999ZM6.69999 4.94995C6.79999 4.94995 6.93332 4.99162 7.09999 5.07495C7.26665 5.15828 7.60832 5.36662 8.12499 5.69995C8.64165 6.03328 8.98332 6.25828 9.14999 6.37495C9.31665 6.49162 9.41665 6.59995 9.44999 6.69995C9.54999 6.89995 9.54999 7.09995 9.44999 7.29995C9.41665 7.39995 9.31665 7.50828 9.14999 7.62495C8.98332 7.74162 8.64165 7.96662 8.12499 8.29995C7.60832 8.63328 7.26665 8.84162 7.09999 8.92495C6.93332 9.00828 6.79999 9.04995 6.69999 9.04995C6.49999 9.01662 6.34999 8.91662 6.24999 8.74995C6.18332 8.64995 6.14165 8.49162 6.12499 8.27495C6.10832 8.05828 6.09999 7.63328 6.09999 6.99995C6.09999 6.36662 6.10832 5.94162 6.12499 5.72495C6.14165 5.50828 6.18332 5.34995 6.24999 5.24995C6.34999 5.08328 6.49999 4.98328 6.69999 4.94995ZM7.49999 0.299951C6.26665 0.299951 5.14165 0.599951 4.12499 1.19995C3.10832 1.79995 2.29999 2.60828 1.69999 3.62495C1.09999 4.64162 0.799988 5.76662 0.799988 6.99995C0.799988 8.23328 1.09999 9.35828 1.69999 10.375C2.29999 11.3916 3.10832 12.2 4.12499 12.8C5.14165 13.4 6.26665 13.7 7.49999 13.7C8.73332 13.7 9.85832 13.4 10.875 12.8C11.8917 12.2 12.7 11.3916 13.3 10.375C13.9 9.35828 14.2 8.23328 14.2 6.99995C14.2 5.76662 13.9 4.64162 13.3 3.62495C12.7 2.60828 11.8917 1.79995 10.875 1.19995C9.85832 0.599951 8.73332 0.299951 7.49999 0.299951ZM1.69999 6.99995C1.69999 5.96662 1.95832 4.99995 2.47499 4.09995C2.99165 3.19995 3.69999 2.49162 4.59999 1.97495C5.49999 1.45828 6.46665 1.19995 7.49999 1.19995C8.53332 1.19995 9.49999 1.45828 10.4 1.97495C11.3 2.49162 12.0083 3.19995 12.525 4.09995C13.0417 4.99995 13.3 5.96662 13.3 6.99995C13.3 8.03328 13.0417 8.99995 12.525 9.89995C12.0083 10.8 11.3 11.5083 10.4 12.025C9.49999 12.5416 8.53332 12.8 7.49999 12.8C6.46665 12.8 5.49999 12.5416 4.59999 12.025C3.69999 11.5083 2.99165 10.8 2.47499 9.89995C1.95832 8.99995 1.69999 8.03328 1.69999 6.99995Z" fill="#131836"/>
</svg>
