<svg width="14" height="15" viewBox="0 0 14 15" fill="none" xmlns="http://www.w3.org/2000/svg">
<path d="M8.32002 5.32012C7.78669 4.98678 7.43669 4.77012 7.27002 4.67012C6.90335 4.50345 6.58669 4.43678 6.32002 4.47012C5.85335 4.50345 5.47002 4.73678 5.17002 5.17012C5.03669 5.37012 4.95335 5.67012 4.92002 6.07012C4.88669 6.30345 4.87002 6.75345 4.87002 7.42012C4.87002 8.08678 4.88669 8.53678 4.92002 8.77012C4.95335 9.17012 5.03669 9.47012 5.17002 9.67012C5.47002 10.1035 5.85335 10.3368 6.32002 10.3701C6.58669 10.4035 6.90335 10.3368 7.27002 10.1701C7.43669 10.0701 7.78669 9.85345 8.32002 9.52012H8.37002C8.90335 9.18678 9.25335 8.95345 9.42002 8.82012C9.75335 8.58678 9.97002 8.35345 10.07 8.12012C10.2367 7.65345 10.2367 7.18678 10.07 6.72012C9.97002 6.48678 9.75335 6.25345 9.42002 6.02012C9.25335 5.88678 8.90335 5.65345 8.37002 5.32012H8.32002ZM6.42002 5.37012C6.52002 5.37012 6.65335 5.41178 6.82002 5.49512C6.98669 5.57845 7.32835 5.78678 7.84502 6.12012C8.36169 6.45345 8.70335 6.67845 8.87002 6.79512C9.03669 6.91178 9.13669 7.02012 9.17002 7.12012C9.27002 7.32012 9.27002 7.52012 9.17002 7.72012C9.13669 7.82012 9.03669 7.92845 8.87002 8.04512C8.70335 8.16178 8.36169 8.38678 7.84502 8.72012C7.32835 9.05345 6.98669 9.26178 6.82002 9.34512C6.65335 9.42845 6.52002 9.47012 6.42002 9.47012C6.22002 9.43678 6.07002 9.33678 5.97002 9.17012C5.90335 9.07012 5.86169 8.91178 5.84502 8.69512C5.82835 8.47845 5.82002 8.05345 5.82002 7.42012C5.82002 6.78678 5.82835 6.36178 5.84502 6.14512C5.86169 5.92845 5.90335 5.77012 5.97002 5.67012C6.07002 5.50345 6.22002 5.40345 6.42002 5.37012ZM7.22002 0.720117C5.98669 0.720117 4.86169 1.02012 3.84502 1.62012C2.82835 2.22012 2.02002 3.02845 1.42002 4.04512C0.82002 5.06178 0.52002 6.18678 0.52002 7.42012C0.52002 8.65345 0.82002 9.77845 1.42002 10.7951C2.02002 11.8118 2.82835 12.6201 3.84502 13.2201C4.86169 13.8201 5.98669 14.1201 7.22002 14.1201C8.45335 14.1201 9.57835 13.8201 10.595 13.2201C11.6117 12.6201 12.42 11.8118 13.02 10.7951C13.62 9.77845 13.92 8.65345 13.92 7.42012C13.92 6.18678 13.62 5.06178 13.02 4.04512C12.42 3.02845 11.6117 2.22012 10.595 1.62012C9.57835 1.02012 8.45335 0.720117 7.22002 0.720117ZM1.42002 7.42012C1.42002 6.38678 1.67835 5.42012 2.19502 4.52012C2.71169 3.62012 3.42002 2.91178 4.32002 2.39512C5.22002 1.87845 6.18669 1.62012 7.22002 1.62012C8.25335 1.62012 9.22002 1.87845 10.12 2.39512C11.02 2.91178 11.7284 3.62012 12.245 4.52012C12.7617 5.42012 13.02 6.38678 13.02 7.42012C13.02 8.45345 12.7617 9.42012 12.245 10.3201C11.7284 11.2201 11.02 11.9285 10.12 12.4451C9.22002 12.9618 8.25335 13.2201 7.22002 13.2201C6.18669 13.2201 5.22002 12.9618 4.32002 12.4451C3.42002 11.9285 2.71169 11.2201 2.19502 10.3201C1.67835 9.42012 1.42002 8.45345 1.42002 7.42012Z" fill="#585D69"/>
</svg>
