<svg width="30" height="30" viewBox="0 0 30 30" fill="none" xmlns="http://www.w3.org/2000/svg">
<path d="M10.1998 2.00039C10.3331 2.20039 10.3665 2.43372 10.2998 2.70039C10.2331 2.96706 10.0998 3.16706 9.8998 3.30039L4.8998 6.40039C4.63314 6.53372 4.38314 6.58372 4.1498 6.55039C3.91647 6.51706 3.73314 6.38372 3.5998 6.15039C3.46647 5.91706 3.41647 5.66706 3.4498 5.40039C3.48314 5.13372 3.63314 4.93372 3.8998 4.80039L8.8998 1.70039C9.0998 1.56706 9.33314 1.53372 9.5998 1.60039C9.86647 1.66706 10.0665 1.80039 10.1998 2.00039ZM19.7998 2.00039C19.9331 1.80039 20.1331 1.66706 20.3998 1.60039C20.6665 1.53372 20.8998 1.56706 21.0998 1.70039L26.0998 4.80039C26.3665 4.93372 26.5165 5.13372 26.5498 5.40039C26.5831 5.66706 26.5331 5.91706 26.3998 6.15039C26.2665 6.38372 26.0831 6.51706 25.8498 6.55039C25.6165 6.58372 25.3665 6.53372 25.0998 6.40039L20.0998 3.30039C19.8998 3.16706 19.7665 2.96706 19.6998 2.70039C19.6331 2.43372 19.6665 2.20039 19.7998 2.00039ZM14.9998 5.90039C13.1331 5.90039 11.4165 6.36706 9.8498 7.30039C8.28314 8.23372 7.03314 9.48372 6.0998 11.0504C5.16647 12.6171 4.6998 14.3504 4.6998 16.2504C4.6998 18.1504 5.16647 19.8837 6.0998 21.4504C7.03314 23.0171 8.28314 24.2671 9.8498 25.2004C11.4165 26.1337 13.1331 26.6004 14.9998 26.6004C16.8665 26.6004 18.5831 26.1337 20.1498 25.2004C21.7165 24.2671 22.9665 23.0171 23.8998 21.4504C24.8331 19.8837 25.2998 18.1504 25.2998 16.2504C25.2998 14.3504 24.8331 12.6171 23.8998 11.0504C22.9665 9.48372 21.7165 8.23372 20.1498 7.30039C18.5831 6.36706 16.8665 5.90039 14.9998 5.90039ZM2.7998 16.3004C2.7998 14.0337 3.3498 11.9671 4.4498 10.1004C5.5498 8.23372 7.03314 6.76706 8.8998 5.70039C10.7665 4.63372 12.7998 4.10039 14.9998 4.10039C17.1998 4.10039 19.2331 4.63372 21.0998 5.70039C22.9665 6.76706 24.4498 8.23372 25.5498 10.1004C26.6498 11.9671 27.1998 14.0171 27.1998 16.2504C27.1998 18.4837 26.6498 20.5337 25.5498 22.4004C24.4498 24.2671 22.9665 25.7337 21.0998 26.8004C19.2331 27.8671 17.1998 28.4004 14.9998 28.4004C12.7998 28.4004 10.7665 27.8671 8.8998 26.8004C7.03314 25.7337 5.5498 24.2671 4.4498 22.4004C3.3498 20.5337 2.7998 18.5004 2.7998 16.3004ZM15.6998 11.4004L16.7998 12.1004L17.9998 13.0004C18.7998 13.6671 19.3331 14.1337 19.5998 14.4004C20.0665 15.0004 20.2998 15.6171 20.2998 16.2504C20.2998 16.8837 20.0665 17.5004 19.5998 18.1004C19.3331 18.3671 18.7998 18.8337 17.9998 19.5004L16.7998 20.4004L15.6998 21.1004C14.8998 21.6337 14.3331 21.9504 13.9998 22.0504C13.6665 22.1504 13.3498 22.1837 13.0498 22.1504C12.7498 22.1171 12.4331 22.0004 12.0998 21.8004C11.6331 21.4671 11.3331 20.9004 11.1998 20.1004C11.1331 19.7004 11.0665 18.9671 10.9998 17.9004L10.8998 16.3004L10.9998 14.6004C11.0665 13.5337 11.1331 12.8004 11.1998 12.4004C11.3331 11.6004 11.6331 11.0337 12.0998 10.7004C12.4331 10.5004 12.7498 10.3837 13.0498 10.3504C13.3498 10.3171 13.6665 10.3504 13.9998 10.4504C14.3331 10.5504 14.8998 10.8671 15.6998 11.4004ZM13.2998 12.2004C13.1665 12.2671 13.0831 12.4504 13.0498 12.7504C13.0165 13.0504 12.9665 13.7337 12.8998 14.8004L12.7998 16.3004L12.8998 17.7004C12.9665 18.7671 13.0165 19.4504 13.0498 19.7504C13.0831 20.0504 13.1665 20.2337 13.2998 20.3004H13.3998C13.5998 20.2337 14.0665 19.9671 14.7998 19.5004L15.6998 18.9004L16.7998 18.1004C17.5331 17.5004 17.9831 17.0837 18.1498 16.8504C18.3165 16.6171 18.3998 16.4171 18.3998 16.2504C18.3998 16.0837 18.3165 15.8837 18.1498 15.6504C17.9831 15.4171 17.5331 15.0004 16.7998 14.4004L15.6998 13.6004L14.7998 13.0004C14.0665 12.5337 13.5998 12.2671 13.3998 12.2004H13.2998Z" fill="#131836"/>
</svg>
