<svg width="13" height="14" viewBox="0 0 13 14" fill="none" xmlns="http://www.w3.org/2000/svg">
<path d="M8.30002 2.04998C7.10002 1.78331 5.90002 1.78331 4.70002 2.04998C3.93336 2.24998 3.26669 2.63331 2.70002 3.19998C2.13336 3.76664 1.75002 4.43331 1.55002 5.19998C1.28336 6.39998 1.28336 7.59998 1.55002 8.79998C1.75002 9.56664 2.13336 10.2333 2.70002 10.8C3.26669 11.3666 3.93336 11.75 4.70002 11.95C5.90002 12.2166 7.10002 12.2166 8.30002 11.95C9.06669 11.75 9.73336 11.3666 10.3 10.8C10.8667 10.2333 11.25 9.56664 11.45 8.79998C11.7167 7.59998 11.7167 6.39998 11.45 5.19998C11.25 4.43331 10.8667 3.76664 10.3 3.19998C9.73336 2.63331 9.06669 2.24998 8.30002 2.04998ZM4.50002 1.14998C5.83336 0.816642 7.16669 0.816642 8.50002 1.14998C9.46669 1.38331 10.2917 1.84164 10.975 2.52498C11.6584 3.20831 12.1167 4.03331 12.35 4.99998C12.6834 6.33331 12.6834 7.66664 12.35 8.99998C12.1167 9.96664 11.6584 10.7916 10.975 11.475C10.2917 12.1583 9.46669 12.6166 8.50002 12.85C7.16669 13.1833 5.83336 13.1833 4.50002 12.85C3.53336 12.6166 2.70836 12.1583 2.02502 11.475C1.34169 10.7916 0.883358 9.96664 0.650024 8.99998C0.316691 7.66664 0.316691 6.33331 0.650024 4.99998C0.883358 4.03331 1.34169 3.20831 2.02502 2.52498C2.70836 1.84164 3.53336 1.38331 4.50002 1.14998ZM7.15002 9.19998C7.15002 9.36664 7.08336 9.50831 6.95002 9.62498C6.81669 9.74164 6.66669 9.79998 6.50002 9.79998C6.33336 9.79998 6.19169 9.74164 6.07502 9.62498C5.95836 9.50831 5.90002 9.36664 5.90002 9.19998C5.90002 9.03331 5.95836 8.88331 6.07502 8.74998C6.19169 8.61664 6.33336 8.54998 6.50002 8.54998C6.66669 8.54998 6.80836 8.61664 6.92502 8.74998C7.04169 8.88331 7.11669 9.03331 7.15002 9.19998ZM6.50002 4.64998C6.30002 4.64998 6.11669 4.72498 5.95002 4.87498C5.78336 5.02498 5.70002 5.21664 5.70002 5.44998V5.74998C5.70002 5.88331 5.65836 5.99164 5.57502 6.07498C5.49169 6.15831 5.38336 6.19998 5.25002 6.19998C5.11669 6.19998 5.00836 6.15831 4.92502 6.07498C4.84169 5.99164 4.80002 5.88331 4.80002 5.74998V5.44998C4.80002 4.98331 4.96669 4.57498 5.30002 4.22498C5.63336 3.87498 6.03336 3.69998 6.50002 3.69998C6.96669 3.69998 7.36669 3.87498 7.70002 4.22498C8.03336 4.57498 8.20002 4.98331 8.20002 5.44998V5.49998C8.20002 5.99998 8.03336 6.43331 7.70002 6.79998L6.85002 7.64998C6.75002 7.74998 6.63336 7.79998 6.50002 7.79998C6.36669 7.79998 6.25836 7.74998 6.17502 7.64998C6.09169 7.54998 6.05002 7.43331 6.05002 7.29998C6.05002 7.16664 6.08336 7.06664 6.15002 6.99998L7.05002 6.09998C7.21669 5.93331 7.30002 5.73331 7.30002 5.49998V5.44998C7.30002 5.21664 7.21669 5.02498 7.05002 4.87498C6.88336 4.72498 6.70002 4.64998 6.50002 4.64998Z" fill="#131836"/>
</svg>
