<svg width="12" height="12" viewBox="0 0 12 12" fill="none" xmlns="http://www.w3.org/2000/svg">
<path d="M3.21664 7.38534L2.63656 10.941C2.61508 11.0842 2.66163 11.197 2.77621 11.2794C2.8908 11.3617 3.01254 11.3671 3.14145 11.2955L6.16 9.63046L9.17856 11.2955C9.3003 11.3671 9.42205 11.3617 9.54379 11.2794C9.66554 11.197 9.71208 11.0842 9.68344 10.941L9.10336 7.38534L11.5633 4.86092C11.6564 4.76783 11.6815 4.65324 11.6385 4.51717C11.5955 4.38111 11.506 4.30233 11.37 4.28085L7.98617 3.76522L6.47153 0.542565C6.41423 0.42082 6.31039 0.359948 6.16 0.359948C6.00961 0.359948 5.90577 0.42082 5.84848 0.542565L4.33383 3.76522L0.950041 4.28085C0.813973 4.30233 0.724455 4.37932 0.681486 4.5118C0.638518 4.64429 0.663583 4.76066 0.756682 4.86092L3.21664 7.38534Z" fill="#131836"/>
</svg>
