<svg width="30" height="30" viewBox="0 0 30 30" fill="none" xmlns="http://www.w3.org/2000/svg">
<path d="M12.4998 1.60019C11.4331 1.60019 10.4498 1.86686 9.5498 2.40019C8.6498 2.93353 7.93314 3.65019 7.3998 4.5502C6.86647 5.4502 6.5998 6.43353 6.5998 7.50019C6.5998 8.56686 6.86647 9.5502 7.3998 10.4502C7.93314 11.3502 8.6498 12.0669 9.5498 12.6002C10.4498 13.1335 11.4331 13.4002 12.4998 13.4002C13.5665 13.4002 14.5498 13.1335 15.4498 12.6002C16.3498 12.0669 17.0665 11.3502 17.5998 10.4502C18.1331 9.5502 18.3998 8.56686 18.3998 7.50019C18.3998 6.43353 18.1331 5.4502 17.5998 4.5502C17.0665 3.65019 16.3498 2.93353 15.4498 2.40019C14.5498 1.86686 13.5665 1.60019 12.4998 1.60019ZM8.3998 7.50019C8.3998 6.36686 8.7998 5.40019 9.5998 4.60019C10.3998 3.8002 11.3665 3.40019 12.4998 3.40019C13.6331 3.40019 14.5998 3.8002 15.3998 4.60019C16.1998 5.40019 16.5998 6.36686 16.5998 7.50019C16.5998 8.63353 16.1998 9.60019 15.3998 10.4002C14.5998 11.2002 13.6331 11.6002 12.4998 11.6002C11.3665 11.6002 10.3998 11.2002 9.5998 10.4002C8.7998 9.60019 8.3998 8.63353 8.3998 7.50019ZM28.1998 16.9002C28.3998 16.7002 28.4831 16.4669 28.4498 16.2002C28.4165 15.9335 28.2998 15.7169 28.0998 15.5502C27.8998 15.3835 27.6831 15.3002 27.4498 15.3002C27.2165 15.3002 26.9998 15.4002 26.7998 15.6002L22.5998 20.3002C21.6665 21.3669 21.0165 22.0502 20.6498 22.3502C20.2831 22.6502 19.9665 22.8002 19.6998 22.8002C19.4331 22.8002 19.1165 22.6502 18.7498 22.3502C18.3831 22.0502 17.7331 21.3669 16.7998 20.3002L15.6998 19.1002C15.4998 18.9002 15.2831 18.8002 15.0498 18.8002C14.8165 18.8002 14.5998 18.8835 14.3998 19.0502C14.1998 19.2169 14.0831 19.4335 14.0498 19.7002C14.0165 19.9669 14.0998 20.2002 14.2998 20.4002L15.3998 21.6002C16.3998 22.7335 17.0998 23.4669 17.4998 23.8002C18.2331 24.4002 18.9665 24.7002 19.6998 24.7002C20.4331 24.7002 21.1665 24.4002 21.8998 23.8002C22.2998 23.4669 22.9665 22.7335 23.8998 21.6002L28.1998 16.9002ZM8.7998 15.3002C7.66647 15.3002 6.6498 15.5669 5.7498 16.1002C4.8498 16.6335 4.13314 17.3502 3.5998 18.2502C3.06647 19.1502 2.7998 20.1502 2.7998 21.2502C2.7998 22.3502 3.06647 23.3502 3.5998 24.2502C4.13314 25.1502 4.8498 25.8669 5.7498 26.4002C6.6498 26.9335 7.63314 27.2002 8.6998 27.2002H16.2998C16.4998 27.2002 16.6998 27.1002 16.8998 26.9002C17.0998 26.7002 17.1998 26.4835 17.1998 26.2502C17.1998 26.0169 17.0998 25.8002 16.8998 25.6002C16.6998 25.4002 16.4998 25.3002 16.2998 25.3002H8.7998C7.66647 25.3002 6.6998 24.9002 5.8998 24.1002C5.0998 23.3002 4.6998 22.3502 4.6998 21.2502C4.6998 20.1502 5.0998 19.2002 5.8998 18.4002C6.6998 17.6002 7.63314 17.2002 8.6998 17.2002H16.2998C16.4998 17.2002 16.6998 17.1002 16.8998 16.9002C17.0998 16.7002 17.1998 16.4835 17.1998 16.2502C17.1998 16.0169 17.0998 15.8002 16.8998 15.6002C16.6998 15.4002 16.4998 15.3002 16.2998 15.3002H8.7998Z" fill="#131836"/>
</svg>
