<svg width="14" height="14" viewBox="0 0 12 11" fill="none" xmlns="http://www.w3.org/2000/svg">
<path d="M4.19335 1.61332C3.72668 1.61332 3.3378 1.77666 3.02668 2.10332C2.71557 2.42999 2.56002 2.8111 2.56002 3.24666C2.56002 3.68221 2.71557 4.05554 3.02668 4.36666C3.3378 4.67777 3.71891 4.83332 4.17002 4.83332C4.62113 4.83332 5.00224 4.67777 5.31335 4.36666C5.62446 4.05554 5.78002 3.68221 5.78002 3.24666C5.78002 2.8111 5.62446 2.42999 5.31335 2.10332C5.00224 1.77666 4.62891 1.61332 4.19335 1.61332ZM1.67335 3.24666C1.67335 2.56221 1.91446 1.97888 2.39668 1.49666C2.87891 1.01443 3.47002 0.773322 4.17002 0.773322C4.87002 0.773322 5.46113 1.01443 5.94335 1.49666C6.42557 1.97888 6.66668 2.56221 6.66668 3.24666C6.66668 3.9311 6.42557 4.51443 5.94335 4.99666C5.46113 5.47888 4.87002 5.71999 4.17002 5.71999C3.47002 5.71999 2.87891 5.47888 2.39668 4.99666C1.91446 4.51443 1.67335 3.9311 1.67335 3.24666ZM2.84002 7.67999H2.74668C2.28002 7.77332 1.89113 7.99888 1.58002 8.35666C1.26891 8.71443 1.11335 9.12666 1.11335 9.59332C1.11335 9.74888 1.16002 9.87332 1.25335 9.96666C1.34668 10.06 1.45557 10.1067 1.58002 10.1067H6.76002C6.88446 10.1067 6.99335 10.06 7.08668 9.96666C7.18002 9.87332 7.22668 9.74888 7.22668 9.59332C7.22668 9.12666 7.07113 8.71443 6.76002 8.35666C6.44891 7.99888 6.06002 7.77332 5.59335 7.67999H5.50002C4.5978 7.52443 3.71113 7.52443 2.84002 7.67999ZM2.70002 6.83999C3.66446 6.68443 4.64446 6.68443 5.64002 6.83999H5.73335C6.4178 6.93332 6.98557 7.24443 7.43668 7.77332C7.8878 8.30221 8.11335 8.90888 8.11335 9.59332C8.11335 9.96666 7.98113 10.2855 7.71668 10.55C7.45224 10.8144 7.13335 10.9467 6.76002 10.9467H1.58002C1.20668 10.9467 0.887796 10.8144 0.623351 10.55C0.358907 10.2855 0.226685 9.96666 0.226685 9.59332C0.226685 8.90888 0.45224 8.30221 0.903351 7.77332C1.35446 7.24443 1.92224 6.93332 2.60668 6.83999H2.70002ZM7.22668 1.19332C7.22668 1.06888 7.27335 0.967767 7.36668 0.889989C7.46002 0.812211 7.56891 0.773322 7.69335 0.773322C8.3778 0.773322 8.96113 1.01443 9.44335 1.49666C9.92557 1.97888 10.1667 2.56221 10.1667 3.24666C10.1667 3.9311 9.92557 4.51443 9.44335 4.99666C8.96113 5.47888 8.36224 5.71999 7.64668 5.71999C7.55335 5.71999 7.46002 5.67332 7.36668 5.57999C7.27335 5.48666 7.22668 5.38554 7.22668 5.27666C7.22668 5.16777 7.27335 5.06666 7.36668 4.97332C7.46002 4.87999 7.56891 4.83332 7.69335 4.83332C8.12891 4.83332 8.50224 4.67777 8.81335 4.36666C9.12446 4.05554 9.28002 3.68221 9.28002 3.24666C9.28002 2.8111 9.12446 2.42999 8.81335 2.10332C8.50224 1.77666 8.11335 1.61332 7.64668 1.61332C7.55335 1.61332 7.46002 1.57443 7.36668 1.49666C7.27335 1.41888 7.22668 1.31777 7.22668 1.19332ZM7.97335 7.25999C7.97335 7.13554 8.01224 7.02666 8.09002 6.93332C8.1678 6.83999 8.26891 6.79332 8.39335 6.79332H8.95335L9.23335 6.83999C9.9178 6.93332 10.4856 7.24443 10.9367 7.77332C11.3878 8.30221 11.6134 8.90888 11.6134 9.59332C11.6134 9.96666 11.4811 10.2855 11.2167 10.55C10.9522 10.8144 10.6334 10.9467 10.26 10.9467H9.04668C8.92224 10.9467 8.82113 10.9078 8.74335 10.83C8.66557 10.7522 8.62668 10.6511 8.62668 10.5267C8.62668 10.4022 8.66557 10.3011 8.74335 10.2233C8.82113 10.1455 8.92224 10.1067 9.04668 10.1067H10.26C10.3845 10.1067 10.4934 10.06 10.5867 9.96666C10.68 9.87332 10.7267 9.74888 10.7267 9.59332C10.7267 9.12666 10.5711 8.71443 10.26 8.35666C9.94891 7.99888 9.56002 7.77332 9.09335 7.67999H8.39335C8.26891 7.67999 8.1678 7.6411 8.09002 7.56332C8.01224 7.48554 7.97335 7.38443 7.97335 7.25999Z" fill="#585D69"/>
</svg>
