<svg width="30" height="30" viewBox="0 0 30 30" fill="none" xmlns="http://www.w3.org/2000/svg">
<path d="M27.5 21.2998V13.4998L27.7 13.3998C28.1667 13.0665 28.4 12.6165 28.4 12.0498C28.4 11.4831 28.1667 11.0665 27.7 10.7998L16.3 4.0998C15.8333 3.83314 15.3167 3.6998 14.75 3.6998C14.1833 3.6998 13.6667 3.83314 13.2 4.0998L1.8 10.7998C1.26667 11.0665 1 11.4831 1 12.0498C1 12.6165 1.26667 13.0665 1.8 13.3998L5.2 15.3998V19.9998C5.2 20.5998 5.35 21.1331 5.65 21.5998C5.95 22.0665 6.33333 22.4331 6.8 22.6998L11.5 25.3998C12.5 25.9998 13.5833 26.2998 14.75 26.2998C15.9167 26.2998 17 25.9998 18 25.3998L22.7 22.6998C23.1667 22.4331 23.5333 22.0665 23.8 21.5998C24.0667 21.1331 24.2 20.5998 24.2 19.9998V15.3998L25.8 14.4998V21.2998C25.3333 21.5665 25.1 21.9331 25.1 22.3998C25.1 22.8665 25.25 23.2498 25.55 23.5498C25.85 23.8498 26.2 23.9998 26.6 23.9998C27 23.9998 27.35 23.8498 27.65 23.5498C27.95 23.2498 28.1 22.8665 28.1 22.3998C28.1 21.9331 27.9 21.5665 27.5 21.2998ZM22.5 19.9998C22.5 20.5331 22.3 20.9331 21.9 21.1998L17.1 23.9998C16.3667 24.3998 15.5833 24.5998 14.75 24.5998C13.9167 24.5998 13.1333 24.3998 12.4 23.9998L7.6 21.1998C7.13333 20.9331 6.9 20.5331 6.9 19.9998V16.3998L13.2 19.9998C13.6667 20.2665 14.1833 20.3998 14.75 20.3998C15.3167 20.3998 15.8333 20.2665 16.3 19.9998L22.5 16.3998V19.9998ZM15.4 18.4998C14.9333 18.7665 14.4667 18.7665 14 18.4998L2.9 12.0998L14 5.5998C14.4667 5.33314 14.9333 5.33314 15.4 5.5998L26.6 12.0998L15.4 18.4998Z" fill="#131836"/>
</svg>
