<svg width="60" height="61" viewBox="0 0 60 61" fill="none" xmlns="http://www.w3.org/2000/svg">
<mask id="mask0_6_1947" style="mask-type:luminance" maskUnits="userSpaceOnUse" x="0" y="0" width="60" height="61">
<path d="M60 0.983398H0V60.9834H60V0.983398Z" fill="white"/>
</mask>
<g mask="url(#mask0_6_1947)">
<path d="M7.11133 41.6001V50.1998C7.11133 51.1211 7.85899 51.8681 8.78113 51.8681H43.525C44.4472 51.8681 45.1948 51.1211 45.1948 50.1998V41.5265C45.1948 39.1094 43.8226 36.9014 41.6542 35.8295L31.8183 30.9668H21.0664L10.7468 35.857C8.5266 36.9092 7.11133 39.1449 7.11133 41.6001Z" fill="#E9DECE"/>
<path d="M31.4319 25.377V30.4275C31.4319 33.3402 29.0686 35.7013 26.1532 35.7013C23.2378 35.7013 20.8745 33.3401 20.8745 30.4275V25.377H31.4319Z" fill="white"/>
<path d="M44.6293 59.5135C49.1918 59.5135 52.8904 55.8148 52.8904 51.2523C52.8904 46.6898 49.1918 42.9912 44.6293 42.9912C40.0668 42.9912 36.3682 46.6898 36.3682 51.2523C36.3682 55.8148 40.0668 59.5135 44.6293 59.5135Z" fill="white"/>
<path d="M37.4223 9.85223V17.5349C37.4223 19.023 36.2241 20.2295 34.7458 20.2298L17.5619 20.2345C16.083 20.2349 14.8838 19.0282 14.8838 17.5396V9.97093C14.8838 8.38153 16.1452 7.09047 17.7121 7.05087C18.3382 4.41403 20.6977 2.45312 23.5109 2.45312H30.0719C34.1313 2.45312 37.4223 5.76579 37.4223 9.85223Z" fill="#E9DECE"/>
<path d="M35.3275 13.7009V20.5638C35.3275 25.6643 31.22 29.7989 26.153 29.7989C21.0861 29.7989 16.9785 25.6641 16.9785 20.5638V13.7009H17.7323C19.7229 13.7009 21.4019 12.1224 21.4425 10.1191C21.4429 10.1032 21.4431 10.0872 21.4434 10.0713C24.5343 12.1678 27.6704 14.0091 31.1792 13.7397C31.4405 13.7197 31.7018 13.7011 31.9639 13.7011L35.3275 13.7009Z" fill="white"/>
<path d="M8.77871 52.6302H33.3515C33.7705 52.6302 34.1103 52.2905 34.1103 51.8714C34.1103 51.4523 33.7705 51.1126 33.3515 51.1126H13.8839V46.5721C13.8839 46.153 13.5442 45.8133 13.1251 45.8133C12.7061 45.8133 12.3664 46.153 12.3664 46.5721V51.1126H8.77871C8.27657 51.1126 7.86817 50.7042 7.86817 50.2021V41.6005C7.86817 39.448 9.12489 37.4631 11.0704 36.5433L20.3679 32.136C21.1041 34.6076 23.3798 36.4588 26.1518 36.4588C28.9677 36.4588 31.3431 34.5507 32.0018 31.9037L41.3181 36.5071C42.7853 37.2353 43.8571 38.5623 44.2585 40.1475C44.3457 40.4913 44.6544 40.7204 44.9936 40.7204C45.0552 40.7204 45.118 40.7127 45.1803 40.697C45.5863 40.5941 45.8323 40.1812 45.7298 39.7752C45.2194 37.7597 43.8571 36.0731 41.9916 35.1472L32.192 30.305V28.5008C34.5999 26.6379 36.0408 23.7641 36.0848 20.71C37.3296 20.1817 38.1835 18.9339 38.1835 17.5378V9.85282C38.1835 5.35434 34.5455 1.69434 30.0734 1.69434H23.5117C20.569 1.69434 18.0147 3.5827 17.1225 6.34903C15.4034 6.66262 14.1271 8.15559 14.1271 9.96813V17.5378C14.1271 18.9589 14.9666 20.192 16.2289 20.7194C16.2727 23.6597 17.5671 26.5182 20.1185 28.494C20.1208 29.0945 20.1125 29.9764 20.1271 30.5712L10.4213 35.1718C7.94821 36.3405 6.35059 38.8641 6.35059 41.6005V50.2021C6.35059 51.5409 7.43961 52.6302 8.77871 52.6302ZM26.1519 34.9413C23.8167 34.9413 21.9222 33.1716 21.6668 30.9468C21.6181 30.5457 21.6425 30.3022 21.636 29.4657C23.0268 30.1813 24.5638 30.5585 26.1519 30.5585C27.7431 30.5585 29.2821 30.1815 30.6744 29.4655C30.6671 30.3401 30.6919 30.4669 30.6477 30.8896C30.4159 33.1993 28.4828 34.9413 26.1519 34.9413ZM15.6446 9.96801C15.6446 8.7877 16.5628 7.83836 17.7354 7.80661C18.0792 7.79747 18.3739 7.55794 18.4527 7.22325C19.0129 4.86122 21.0937 3.2118 23.5117 3.2118H30.0734C33.7084 3.2118 36.6659 6.19094 36.6659 9.8527V17.5377C36.6659 18.0688 36.4465 18.5618 36.0891 18.9157V13.7011C36.0891 13.282 35.7494 12.9423 35.3303 12.9423C30.8643 12.283 29.8975 14.8853 21.8672 9.44301C21.6372 9.2868 21.3402 9.29336 21.093 9.42133C20.8464 9.54883 20.6887 9.82563 20.6827 10.1033C20.6495 11.6689 19.3258 12.9423 17.7323 12.9423H16.98C16.561 12.9423 16.2212 13.282 16.2212 13.7011V18.9264C15.8608 18.5734 15.6444 18.0798 15.6444 17.5377L15.6446 9.96801ZM17.7388 20.5668C17.7388 18.5257 17.7388 16.4943 17.7388 14.46C19.7212 14.4571 21.4266 13.1452 21.9975 11.3537C29.1603 16.0312 31.1128 14.0075 34.5714 14.46V20.5668C34.5714 23.318 33.2341 25.912 30.9951 27.505C29.5742 28.5097 27.8994 29.0409 26.1518 29.0409C24.4084 29.0409 22.736 28.5098 21.32 27.5082C18.9514 25.806 17.7388 23.2252 17.7388 20.5668Z" fill="#585D69"/>
<path d="M35.6089 51.2525C35.6089 56.226 39.6554 60.2723 44.6289 60.2723C49.6025 60.2723 53.6489 56.2261 53.6489 51.2525C53.6489 46.2788 49.6025 42.2324 44.6289 42.2324C39.6554 42.2324 35.6089 46.2789 35.6089 51.2525ZM52.1315 51.2525C52.1315 55.3893 48.7661 58.7547 44.629 58.7547C40.492 58.7547 37.1266 55.3893 37.1266 51.2525C37.1266 47.1156 40.492 43.75 44.629 43.75C48.7661 43.75 52.1315 47.1156 52.1315 51.2525Z" fill="#585D69"/>
<path d="M41.5814 50.9142C41.326 50.5826 40.8488 50.5215 40.5174 50.7766C40.1854 51.0325 40.1237 51.5087 40.3792 51.8407L42.3656 54.4177C42.6397 54.772 43.1556 54.8132 43.4824 54.5111L49.318 49.1083C49.6251 48.8237 49.644 48.3435 49.3589 48.0362C49.0744 47.7286 48.5947 47.7104 48.2865 47.995L43.0605 52.8334L41.5814 50.9142Z" fill="#585D69"/>
</g>
</svg>
