<svg width="13" height="14" viewBox="0 0 13 14" fill="none" xmlns="http://www.w3.org/2000/svg">
<path d="M9.00002 13.7H4.00002C2.86669 13.7 1.98336 13.3916 1.35002 12.775C0.716691 12.1583 0.400024 11.2666 0.400024 10.1V3.84995C0.400024 2.71662 0.716691 1.84162 1.35002 1.22495C1.98336 0.608284 2.86669 0.299951 4.00002 0.299951H9.00002C10.1334 0.299951 11.0167 0.608284 11.65 1.22495C12.2834 1.84162 12.6 2.71662 12.6 3.84995V10.1C12.6 11.2666 12.2834 12.1583 11.65 12.775C11.0167 13.3916 10.1334 13.7 9.00002 13.7ZM4.00002 1.19995C2.23336 1.19995 1.35002 2.08328 1.35002 3.84995V10.1C1.35002 11.9 2.23336 12.8 4.00002 12.8H9.00002C10.7667 12.8 11.65 11.9166 11.65 10.15V3.84995C11.65 2.08328 10.7667 1.19995 9.00002 1.19995H4.00002ZM10.55 5.29995H9.30002C8.83336 5.29995 8.43336 5.12495 8.10002 4.77495C7.76669 4.42495 7.60002 4.01662 7.60002 3.54995V2.29995C7.60002 2.16662 7.64169 2.05828 7.72502 1.97495C7.80836 1.89162 7.91669 1.84995 8.05002 1.84995C8.18336 1.84995 8.30002 1.89162 8.40002 1.97495C8.50002 2.05828 8.55002 2.16662 8.55002 2.29995V3.54995C8.55002 3.78328 8.62502 3.97495 8.77502 4.12495C8.92502 4.27495 9.10002 4.34995 9.30002 4.34995H10.55C10.6834 4.34995 10.8 4.39162 10.9 4.47495C11 4.55828 11.05 4.66662 11.05 4.79995C11.05 4.93328 11 5.04995 10.9 5.14995C10.8 5.24995 10.6834 5.29995 10.55 5.29995ZM6.50002 8.09995H4.00002C3.86669 8.09995 3.75836 8.04995 3.67502 7.94995C3.59169 7.84995 3.55002 7.74162 3.55002 7.62495C3.55002 7.50828 3.59169 7.39995 3.67502 7.29995C3.75836 7.19995 3.86669 7.14995 4.00002 7.14995H6.50002C6.63336 7.14995 6.74169 7.19995 6.82502 7.29995C6.90836 7.39995 6.95002 7.50828 6.95002 7.62495C6.95002 7.74162 6.90836 7.84995 6.82502 7.94995C6.74169 8.04995 6.63336 8.09995 6.50002 8.09995ZM9.00002 10.6H4.00002C3.86669 10.6 3.75836 10.55 3.67502 10.45C3.59169 10.35 3.55002 10.2416 3.55002 10.125C3.55002 10.0083 3.59169 9.89995 3.67502 9.79995C3.75836 9.69995 3.86669 9.64995 4.00002 9.64995H9.00002C9.13336 9.64995 9.24169 9.69995 9.32502 9.79995C9.40836 9.89995 9.45002 10.0083 9.45002 10.125C9.45002 10.2416 9.40836 10.35 9.32502 10.45C9.24169 10.55 9.13336 10.6 9.00002 10.6Z" fill="#131836"/>
</svg>
