<svg width="30" height="30" viewBox="0 0 30 30" fill="none" xmlns="http://www.w3.org/2000/svg">
<path d="M17.2002 10.8002C16.1335 10.1335 15.4335 9.7002 15.1002 9.50019C14.3669 9.16686 13.7335 9.03353 13.2002 9.10019C12.2669 9.16686 11.5002 9.63353 10.9002 10.5002C10.6335 10.9002 10.4669 11.5002 10.4002 12.3002C10.3335 12.7669 10.3002 13.6669 10.3002 15.0002C10.3002 16.3335 10.3335 17.2335 10.4002 17.7002C10.4669 18.5002 10.6335 19.1002 10.9002 19.5002C11.5002 20.3669 12.2669 20.8335 13.2002 20.9002C13.7335 20.9669 14.3669 20.8335 15.1002 20.5002C15.4335 20.3002 16.1335 19.8669 17.2002 19.2002H17.3002C18.3669 18.5335 19.0669 18.0669 19.4002 17.8002C20.0669 17.3335 20.5002 16.8669 20.7002 16.4002C21.0335 15.4669 21.0335 14.5335 20.7002 13.6002C20.5002 13.1335 20.0669 12.6669 19.4002 12.2002C19.0669 11.9335 18.3669 11.4669 17.3002 10.8002H17.2002ZM13.4002 10.9002C13.6002 10.9002 13.8669 10.9835 14.2002 11.1502C14.5335 11.3169 15.2169 11.7335 16.2502 12.4002C17.2835 13.0669 17.9669 13.5169 18.3002 13.7502C18.6335 13.9835 18.8335 14.2002 18.9002 14.4002C19.1002 14.8002 19.1002 15.2002 18.9002 15.6002C18.8335 15.8002 18.6335 16.0169 18.3002 16.2502C17.9669 16.4835 17.2835 16.9335 16.2502 17.6002C15.2169 18.2669 14.5335 18.6835 14.2002 18.8502C13.8669 19.0169 13.6002 19.1002 13.4002 19.1002C13.0002 19.0335 12.7002 18.8335 12.5002 18.5002C12.3669 18.3002 12.2835 17.9835 12.2502 17.5502C12.2169 17.1169 12.2002 16.2669 12.2002 15.0002C12.2002 13.7335 12.2169 12.8835 12.2502 12.4502C12.2835 12.0169 12.3669 11.7002 12.5002 11.5002C12.7002 11.1669 13.0002 10.9669 13.4002 10.9002ZM15.4002 1.3002C15.1335 1.3002 14.8669 1.3002 14.6002 1.3002C13.8002 1.3002 12.9002 1.53353 11.9002 2.00019C11.3002 2.33353 10.2002 2.96686 8.6002 3.90019H8.5002C6.9002 4.83353 5.83353 5.50019 5.3002 5.90019C4.43353 6.50019 3.76686 7.13353 3.3002 7.8002L2.9002 8.50019C2.56686 9.16686 2.33353 10.0669 2.2002 11.2002C2.2002 11.8669 2.2002 13.1335 2.2002 15.0002C2.2002 16.8669 2.2002 18.1335 2.2002 18.8002C2.33353 19.9335 2.56686 20.8335 2.9002 21.5002L3.3002 22.2002C3.76686 22.8669 4.43353 23.5002 5.3002 24.1002C5.83353 24.5002 6.9002 25.1669 8.5002 26.1002H8.6002C10.2002 27.0335 11.3002 27.6669 11.9002 28.0002C12.9002 28.4669 13.8002 28.7002 14.6002 28.7002H15.4002C16.2002 28.7002 17.1002 28.4669 18.1002 28.0002C18.7002 27.6669 19.8002 27.0335 21.4002 26.1002H21.5002C23.1002 25.1669 24.1669 24.5002 24.7002 24.1002C25.5669 23.5002 26.2335 22.8669 26.7002 22.2002L27.1002 21.5002C27.4335 20.8335 27.6669 19.9335 27.8002 18.8002C27.8002 18.1335 27.8002 16.8669 27.8002 15.0002C27.8002 13.1335 27.8002 11.8669 27.8002 11.2002C27.6669 10.0669 27.4335 9.16686 27.1002 8.50019L26.7002 7.8002C26.2335 7.13353 25.5669 6.50019 24.7002 5.90019C24.1669 5.50019 23.1002 4.83353 21.5002 3.90019H21.4002C19.8002 2.96686 18.7002 2.33353 18.1002 2.00019C17.1002 1.53353 16.2002 1.3002 15.4002 1.3002ZM14.7002 3.2002C14.9002 3.13353 15.1002 3.13353 15.3002 3.2002C15.8335 3.2002 16.5002 3.36686 17.3002 3.7002C17.8335 3.96686 18.9002 4.56686 20.5002 5.50019C22.1002 6.43353 23.1335 7.06686 23.6002 7.40019C24.3335 7.86686 24.8335 8.36686 25.1002 8.90019L25.4002 9.3002C25.6669 9.83353 25.8335 10.5002 25.9002 11.3002C25.9669 11.9669 26.0002 13.2002 26.0002 15.0002C26.0002 16.8002 25.9669 18.0335 25.9002 18.7002C25.8335 19.5002 25.6669 20.1669 25.4002 20.7002L25.1002 21.1002C24.8335 21.6335 24.3335 22.1335 23.6002 22.6002C23.1335 22.9335 22.1002 23.5669 20.5002 24.5002C18.9002 25.4335 17.8335 26.0335 17.3002 26.3002C16.5002 26.6335 15.8335 26.8002 15.3002 26.8002H14.7002C14.1669 26.8002 13.5002 26.6335 12.7002 26.3002C12.1669 26.0335 11.1002 25.4335 9.5002 24.5002C7.9002 23.5669 6.86686 22.9335 6.4002 22.6002C5.66686 22.1335 5.16686 21.6335 4.9002 21.1002L4.6002 20.7002C4.33353 20.1669 4.16686 19.5002 4.1002 18.7002C4.03353 18.0335 4.0002 16.8002 4.0002 15.0002C4.0002 13.2002 4.03353 11.9669 4.1002 11.3002C4.16686 10.5002 4.33353 9.83353 4.6002 9.3002L4.9002 8.90019C5.16686 8.36686 5.66686 7.86686 6.4002 7.40019C6.86686 7.06686 7.9002 6.43353 9.5002 5.50019C11.1002 4.56686 12.1669 3.96686 12.7002 3.7002C13.5002 3.36686 14.1669 3.2002 14.7002 3.2002Z" fill="#131836"/>
</svg>
