<svg width="14" height="14" viewBox="0 0 14 14" fill="none" xmlns="http://www.w3.org/2000/svg">
<path d="M8.92 1.4106C7.64 1.12615 6.36 1.12615 5.08 1.4106C4.26222 1.62393 3.55111 2.03282 2.94667 2.63727C2.34222 3.24171 1.93333 3.95282 1.72 4.7706C1.43555 6.0506 1.43555 7.3306 1.72 8.6106C1.93333 9.42838 2.34222 10.1395 2.94667 10.7439C3.55111 11.3484 4.26222 11.7573 5.08 11.9706C6.36 12.255 7.64 12.255 8.92 11.9706C9.73778 11.7573 10.4489 11.3484 11.0533 10.7439C11.6578 10.1395 12.0667 9.42838 12.28 8.6106C12.5644 7.3306 12.5644 6.0506 12.28 4.7706C12.0667 3.95282 11.6578 3.24171 11.0533 2.63727C10.4489 2.03282 9.73778 1.62393 8.92 1.4106ZM4.86667 0.450599C6.28889 0.0950432 7.71111 0.0950432 9.13333 0.450599C10.1644 0.699488 11.0444 1.18838 11.7733 1.91726C12.5022 2.64615 12.9911 3.52615 13.24 4.55727C13.5956 5.97949 13.5956 7.40171 13.24 8.82393C12.9911 9.85504 12.5022 10.735 11.7733 11.4639C11.0444 12.1928 10.1644 12.6817 9.13333 12.9306C7.71111 13.2862 6.28889 13.2862 4.86667 12.9306C3.83555 12.6817 2.95555 12.1928 2.22667 11.4639C1.49778 10.735 1.00889 9.85504 0.759999 8.82393C0.404443 7.40171 0.404443 5.97949 0.759999 4.55727C1.00889 3.52615 1.49778 2.64615 2.22667 1.91726C2.95555 1.18838 3.83555 0.699488 4.86667 0.450599ZM3.96 4.71727C4.03111 4.6106 4.13778 4.54838 4.28 4.5306C4.42222 4.51282 4.54667 4.55727 4.65333 4.66393L6.04 5.78393C6.32444 6.03282 6.46667 6.33504 6.46667 6.6906C6.46667 7.04615 6.32444 7.34838 6.04 7.59727L4.65333 8.71727C4.54667 8.82393 4.42222 8.86838 4.28 8.8506C4.13778 8.83282 4.02222 8.7706 3.93333 8.66393C3.84444 8.55727 3.80889 8.44171 3.82667 8.31727C3.84444 8.19282 3.90667 8.07727 4.01333 7.9706L5.4 6.79727C5.43555 6.76171 5.45333 6.72615 5.45333 6.6906C5.45333 6.65504 5.43555 6.61949 5.4 6.58393L4.01333 5.4106C3.90667 5.30393 3.84444 5.18838 3.82667 5.06393C3.80889 4.93949 3.85333 4.82393 3.96 4.71727ZM6.84 8.34393C6.84 8.20171 6.88444 8.08615 6.97333 7.99727C7.06222 7.90838 7.17778 7.86393 7.32 7.86393H9.66667C9.80889 7.86393 9.92444 7.90838 10.0133 7.99727C10.1022 8.08615 10.1467 8.20171 10.1467 8.34393C10.1467 8.48615 10.1022 8.6106 10.0133 8.71727C9.92444 8.82393 9.80889 8.87727 9.66667 8.87727H7.32C7.17778 8.87727 7.06222 8.82393 6.97333 8.71727C6.88444 8.6106 6.84 8.48615 6.84 8.34393Z" fill="#131836"/>
</svg>
