<svg width="58" height="60" viewBox="0 0 58 60" fill="none" xmlns="http://www.w3.org/2000/svg">
<path d="M56.712 16.2605V46.8891C56.712 48.9911 55.008 50.695 52.9061 50.695H5.09423C2.99224 50.695 1.28833 48.991 1.28833 46.8891V16.2605C1.28833 14.1585 2.99236 12.4546 5.09423 12.4546H52.9061C55.008 12.4545 56.712 14.1585 56.712 16.2605Z" fill="white"/>
<path d="M1.28809 42.3298V46.8891C1.28809 48.9911 2.99211 50.6951 5.09398 50.6951H52.9059C55.0079 50.6951 56.7119 48.9911 56.7119 46.8891V42.3298H1.28809Z" fill="#E9DECE"/>
<path d="M29.0001 60.7917C33.5458 60.7917 37.2309 58.0424 37.2309 54.6509C37.2309 51.2594 33.5458 48.51 29.0001 48.51C24.4544 48.51 20.7693 51.2594 20.7693 54.6509C20.7693 58.0424 24.4544 60.7917 29.0001 60.7917Z" fill="white"/>
<path d="M40.3184 28.6965C46.5721 22.4427 46.5721 12.3034 40.3184 6.04968C34.0646 -0.20406 23.9253 -0.204061 17.6716 6.04968C11.4178 12.3034 11.4178 22.4427 17.6716 28.6965C23.9253 34.9502 34.0646 34.9502 40.3184 28.6965Z" fill="#E9DECE"/>
<path d="M29 33.3877C33.0313 33.3877 36.2993 26.2171 36.2993 17.3716C36.2993 8.52614 33.0313 1.35547 29 1.35547C24.9687 1.35547 21.7007 8.52614 21.7007 17.3716C21.7007 26.2171 24.9687 33.3877 29 33.3877Z" fill="white"/>
<path d="M22.6764 11.5425C23.9028 11.5425 24.897 10.5483 24.897 9.3219C24.897 8.09551 23.9028 7.10132 22.6764 7.10132C21.45 7.10132 20.4558 8.09551 20.4558 9.3219C20.4558 10.5483 21.45 11.5425 22.6764 11.5425Z" fill="white"/>
<path d="M29.0009 24.6441C30.2273 24.6441 31.2215 23.6499 31.2215 22.4235C31.2215 21.1971 30.2273 20.2029 29.0009 20.2029C27.7745 20.2029 26.7803 21.1971 26.7803 22.4235C26.7803 23.6499 27.7745 24.6441 29.0009 24.6441Z" fill="#E9DECE"/>
<path d="M52.9071 11.7817H47.0431C46.6727 11.7817 46.3722 12.0822 46.3722 12.4526C46.3722 12.8231 46.6727 13.1235 47.0431 13.1235H52.9071C54.6359 13.1235 56.0423 14.53 56.0423 16.2588V41.6587H1.95788V16.2588C1.95788 14.5299 3.3646 13.1235 5.09335 13.1235H10.9571C11.3278 13.1235 11.628 12.8231 11.628 12.4526C11.628 12.0822 11.3276 11.7817 10.9571 11.7817H5.09335C2.62456 11.7817 0.615967 13.7901 0.615967 16.2589V46.8881C0.615967 49.3647 2.6323 51.366 5.09417 51.366H22.3071C23.3818 53.4241 23.3818 55.8779 22.3071 57.9358H19.0416C18.6712 57.9358 18.3707 58.2363 18.3707 58.6067C18.3707 58.9771 18.6712 59.2776 19.0416 59.2776H38.9585C39.3289 59.2776 39.6294 58.9771 39.6294 58.6067C39.6294 58.2363 39.3289 57.9358 38.9585 57.9358H35.693C34.6183 55.8778 34.6183 53.424 35.693 51.366C53.5621 51.244 53.1715 51.6391 54.6479 51.0132C56.2543 50.3324 57.3841 48.7396 57.3841 46.8881V16.2588C57.3841 13.7901 55.3757 11.7817 52.9071 11.7817ZM1.95917 43.0005H56.041V46.8892C56.041 48.1855 55.25 49.3005 54.1255 49.7771C53.021 50.2447 55.4034 49.9327 5.09335 50.0237C3.36507 50.0237 1.95917 48.6172 1.95917 46.8892V43.0005ZM34.2076 57.9357H23.7928C24.6794 55.8369 24.6794 53.4646 23.7928 51.3659H34.2076C33.3208 53.4647 33.3208 55.837 34.2076 57.9357Z" fill="#585D69"/>
<path d="M26.7336 47.1833H31.2666C31.6371 47.1833 31.9375 46.8829 31.9375 46.5125C31.9375 46.142 31.6371 45.8416 31.2666 45.8416H26.7336C26.3631 45.8416 26.0627 46.142 26.0627 46.5125C26.0627 46.8829 26.3631 47.1833 26.7336 47.1833Z" fill="#585D69"/>
<path d="M14.9171 26.3059C14.9394 26.3515 14.9668 26.3935 14.9984 26.4326C21.5957 36.5924 36.3911 36.6044 42.9984 26.4384C43.0346 26.3946 43.066 26.3472 43.0903 26.2951C46.5494 20.8524 46.5563 13.9165 43.1014 8.46548C43.0746 8.40337 43.0367 8.3477 42.9932 8.29696C36.3766 -1.87093 21.5736 -1.83202 14.9914 8.32181C14.9676 8.35239 14.947 8.38509 14.9287 8.41954C11.4444 13.877 11.4385 20.842 14.9171 26.3059ZM19.7892 9.402C19.8201 10.5276 20.4964 11.4925 21.4615 11.942C21.2136 13.4681 21.0739 15.0624 21.0438 16.7008H13.672C13.7873 14.0372 14.5826 11.5472 15.8915 9.402H19.7892ZM44.3285 16.7008H36.9598C36.9121 14.1241 36.5934 11.6306 36.0229 9.402H42.1088C43.4178 11.5472 44.2131 14.0372 44.3285 16.7008ZM42.1082 25.3424H36.0337C36.5863 23.1691 36.9151 20.694 36.9629 18.0427H44.3285C44.2131 20.7067 43.4176 23.1971 42.1082 25.3424ZM13.672 18.0427H21.0373C21.0851 20.6941 21.4137 23.1691 21.9665 25.3424H15.8921C14.5829 23.1971 13.7873 20.7067 13.672 18.0427ZM22.7776 12.2081C24.2982 12.1552 25.5219 10.9254 25.5637 9.402H28.3291V16.7008H22.3855C22.4152 15.1531 22.5465 13.6482 22.7776 12.2081ZM22.379 18.0427H28.3292V19.6142C27.0583 19.9183 26.1094 21.0611 26.1094 22.4238C26.1094 23.7865 27.0583 24.9293 28.3292 25.2334V25.3425H23.3698C22.7883 23.1841 22.4309 20.6881 22.379 18.0427ZM29.0009 23.9735C28.1465 23.9735 27.4512 23.2781 27.4512 22.4238C27.4512 21.5703 28.1452 20.8758 28.9983 20.8743L29.0001 20.8745L29.0027 20.8742C29.8563 20.8752 30.5507 21.5701 30.5507 22.4238C30.5507 23.2781 29.8553 23.9735 29.0009 23.9735ZM28.3292 26.6842V32.6362C26.5015 32.188 24.8682 29.9333 23.7756 26.6842H28.3292ZM29.671 32.6362V26.6842H34.2246C33.132 29.9333 31.4987 32.188 29.671 32.6362ZM29.671 25.3424V25.2337C30.9427 24.9302 31.8925 23.787 31.8925 22.4237C31.8925 21.0603 30.9427 19.9172 29.671 19.6136V18.0426H35.6212C35.5692 20.688 35.2119 23.184 34.6304 25.3422L29.671 25.3424ZM35.618 16.7008H29.671V9.402H34.6329C35.231 11.6069 35.5682 14.1054 35.618 16.7008ZM29.671 8.06024V2.11825C31.4328 2.56462 33.1068 4.73575 34.2301 8.06024H29.671ZM28.3292 2.11368V8.06024H25.274C25.036 7.57239 24.6659 7.16177 24.2089 6.87442C25.3178 4.18661 26.7837 2.49899 28.3292 2.11368ZM24.226 9.3221C24.226 10.1765 23.5311 10.8715 22.6767 10.8715C21.8222 10.8715 21.127 10.1765 21.127 9.3221C21.127 8.4677 21.8224 7.77243 22.6767 7.77243C23.531 7.77243 24.226 8.46782 24.226 9.3221ZM16.8151 26.6842H22.3485C23.0995 29.0602 24.136 30.9886 25.3632 32.278C21.9104 31.4354 18.913 29.4228 16.8151 26.6842ZM32.6371 32.278C33.8643 30.9887 34.9007 29.0604 35.6518 26.6842H41.1854C39.0874 29.4228 36.0898 31.4354 32.6371 32.278ZM41.186 8.06024H35.638C34.8725 5.63587 33.8333 3.72923 32.6249 2.46278C36.0831 3.30372 39.0856 5.31794 41.186 8.06024ZM25.3679 2.46442C24.4441 3.4338 23.6179 4.77993 22.938 6.44376C21.7027 6.33267 20.5917 7.00942 20.0791 8.06024H16.8144C18.9132 5.31993 21.9128 3.30653 25.3679 2.46442Z" fill="#585D69"/>
</svg>
