<svg width="48" height="60" viewBox="0 0 48 60" fill="none" xmlns="http://www.w3.org/2000/svg">
<path d="M1.11157 40.6003V49.2C1.11157 50.1213 1.85923 50.8683 2.78137 50.8683H37.5253C38.4475 50.8683 39.1951 50.1213 39.1951 49.2V40.5267C39.1951 38.1096 37.8229 35.9016 35.6545 34.8297L25.8186 29.967H15.0667L4.74708 34.8572C2.52684 35.9094 1.11157 38.1451 1.11157 40.6003Z" fill="#E9DECE"/>
<path d="M25.4322 24.377V29.4275C25.4322 32.3402 23.0689 34.7013 20.1535 34.7013C17.2381 34.7013 14.8748 32.3401 14.8748 29.4275V24.377H25.4322Z" fill="white"/>
<path d="M38.6293 58.5135C43.1918 58.5135 46.8904 54.8148 46.8904 50.2523C46.8904 45.6898 43.1918 41.9912 38.6293 41.9912C34.0668 41.9912 30.3682 45.6898 30.3682 50.2523C30.3682 54.8148 34.0668 58.5135 38.6293 58.5135Z" fill="white"/>
<path d="M31.4225 8.85198V16.5347C31.4225 18.0228 30.2243 19.2293 28.746 19.2296L11.5621 19.2343C10.0832 19.2347 8.88403 18.028 8.88403 16.5394V8.97069C8.88403 7.38128 10.1454 6.09022 11.7123 6.05062C12.3384 3.41378 14.6979 1.45288 17.5111 1.45288H24.0721C28.1315 1.45288 31.4225 4.76554 31.4225 8.85198Z" fill="#E9DECE"/>
<path d="M29.328 12.7009V19.5638C29.328 24.6643 25.2205 28.7989 20.1535 28.7989C15.0866 28.7989 10.979 24.6641 10.979 19.5638V12.7009H11.7328C13.7234 12.7009 15.4024 11.1224 15.443 9.11909C15.4434 9.10319 15.4436 9.08719 15.4439 9.07129C18.5348 11.1678 21.6709 13.0091 25.1797 12.7397C25.441 12.7197 25.7023 12.7011 25.9644 12.7011L29.328 12.7009Z" fill="white"/>
<path d="M2.77895 51.63H27.3518C27.7708 51.63 28.1106 51.2903 28.1106 50.8712C28.1106 50.4521 27.7708 50.1124 27.3518 50.1124H7.88419V45.5719C7.88419 45.1528 7.54449 44.8131 7.12539 44.8131C6.70639 44.8131 6.36669 45.1528 6.36669 45.5719V50.1124H2.77895C2.27681 50.1124 1.86841 49.704 1.86841 49.2019V40.6003C1.86841 38.4478 3.12513 36.4629 5.07069 35.5431L14.3682 31.1358C15.1044 33.6074 17.3801 35.4586 20.1521 35.4586C22.968 35.4586 25.3434 33.5505 26.0021 30.9035L35.3184 35.5069C36.7856 36.2351 37.8574 37.5621 38.2588 39.1473C38.346 39.4911 38.6547 39.7202 38.9939 39.7202C39.0555 39.7202 39.1183 39.7125 39.1806 39.6968C39.5866 39.5939 39.8326 39.181 39.7301 38.775C39.2197 36.7595 37.8574 35.0729 35.9919 34.147L26.1923 29.3048V27.5006C28.6002 25.6377 30.0411 22.7639 30.0851 19.7098C31.3299 19.1815 32.1838 17.9337 32.1838 16.5376V8.85257C32.1838 4.35409 28.5458 0.694092 24.0737 0.694092H17.512C14.5693 0.694092 12.015 2.58245 11.1228 5.34878C9.40369 5.66237 8.12739 7.15534 8.12739 8.96788V16.5376C8.12739 17.9587 8.96689 19.1918 10.2292 19.7192C10.273 22.6595 11.5674 25.518 14.1188 27.4938C14.1211 28.0943 14.1128 28.9762 14.1274 29.571L4.42159 34.1716C1.94845 35.3403 0.35083 37.8639 0.35083 40.6003V49.2019C0.35083 50.5407 1.43985 51.63 2.77895 51.63ZM20.1522 33.9411C17.817 33.9411 15.9225 32.1714 15.6671 29.9466C15.6184 29.5455 15.6428 29.302 15.6363 28.4655C17.0271 29.1811 18.5641 29.5583 20.1522 29.5583C21.7434 29.5583 23.2824 29.1813 24.6747 28.4653C24.6674 29.3399 24.6922 29.4667 24.648 29.8894C24.4162 32.1991 22.4831 33.9411 20.1522 33.9411ZM9.64489 8.96776C9.64489 7.78745 10.5631 6.83811 11.7357 6.80636C12.0795 6.79722 12.3742 6.55769 12.453 6.223C13.0132 3.86097 15.094 2.21155 17.512 2.21155H24.0737C27.7087 2.21155 30.6662 5.19069 30.6662 8.85245V16.5375C30.6662 17.0686 30.4468 17.5616 30.0894 17.9155V12.7009C30.0894 12.2818 29.7497 11.9421 29.3306 11.9421C24.8646 11.2828 23.8978 13.8851 15.8675 8.44276C15.6375 8.28655 15.3405 8.29311 15.0933 8.42108C14.8467 8.54858 14.689 8.82538 14.683 9.1031C14.6498 10.6687 13.3261 11.9421 11.7326 11.9421H10.9803C10.5613 11.9421 10.2215 12.2818 10.2215 12.7009V17.9262C9.86109 17.5732 9.64469 17.0796 9.64469 16.5375L9.64489 8.96776ZM11.7391 19.5666C11.7391 17.5255 11.7391 15.4941 11.7391 13.4598C13.7215 13.4569 15.4269 12.145 15.9978 10.3535C23.1606 15.031 25.1131 13.0073 28.5717 13.4598V19.5666C28.5717 22.3178 27.2344 24.9118 24.9954 26.5048C23.5745 27.5095 21.8997 28.0407 20.1521 28.0407C18.4087 28.0407 16.7363 27.5096 15.3203 26.508C12.9517 24.8058 11.7391 22.225 11.7391 19.5666Z" fill="#585D69"/>
<path d="M29.6091 50.2525C29.6091 55.226 33.6556 59.2723 38.6291 59.2723C43.6027 59.2723 47.6491 55.2261 47.6491 50.2525C47.6491 45.2788 43.6027 41.2324 38.6291 41.2324C33.6556 41.2324 29.6091 45.2789 29.6091 50.2525ZM46.1317 50.2525C46.1317 54.3893 42.7663 57.7547 38.6292 57.7547C34.4922 57.7547 31.1268 54.3893 31.1268 50.2525C31.1268 46.1156 34.4922 42.75 38.6292 42.75C42.7663 42.75 46.1317 46.1156 46.1317 50.2525Z" fill="#585D69"/>
<path d="M35.5817 49.9137C35.3263 49.5821 34.8491 49.521 34.5177 49.7761C34.1857 50.032 34.124 50.5082 34.3795 50.8402L36.3659 53.4172C36.64 53.7715 37.1559 53.8127 37.4827 53.5106L43.3183 48.1078C43.6254 47.8232 43.6443 47.343 43.3592 47.0357C43.0747 46.7281 42.595 46.7099 42.2868 46.9945L37.0608 51.8329L35.5817 49.9137Z" fill="#585D69"/>
</svg>
